<svg width="24" height="24" viewBox="0 0 24 24" fill="none" xmlns="http://www.w3.org/2000/svg">
<path d="M3.59298 16.0007C3.34152 16.2435 3.00472 16.3779 2.65512 16.3749C2.30552 16.3719 1.9711 16.2316 1.72389 15.9844C1.47668 15.7372 1.33645 15.4028 1.33342 15.0532C1.33038 14.7036 1.46477 14.3668 1.70765 14.1153L10.569 5.25269C10.7547 5.06682 10.9752 4.91936 11.218 4.81882C11.4607 4.71816 11.7208 4.66642 11.9836 4.66642C12.2464 4.66642 12.5066 4.71816 12.7494 4.81882C12.992 4.91936 13.2126 5.06682 13.3983 5.25269L22.2596 14.1153C22.387 14.2383 22.4886 14.3855 22.5584 14.5481C22.6283 14.7108 22.6651 14.8858 22.6667 15.0628C22.6682 15.2398 22.6344 15.4154 22.5674 15.5793C22.5004 15.7431 22.4014 15.892 22.2762 16.0172C22.151 16.1424 22.0022 16.2414 21.8383 16.3084C21.6744 16.3755 21.4988 16.4092 21.3218 16.4077C21.1447 16.4061 20.9698 16.3693 20.8071 16.2995C20.6444 16.2296 20.4974 16.128 20.3743 16.0007L11.9836 7.61002L3.59298 16.0007Z" fill="white"/>
</svg>
