<svg width="24" height="24" viewBox="0 0 24 24" fill="none" xmlns="http://www.w3.org/2000/svg">
<path d="M17.3343 20.4072C17.5771 20.6587 17.7115 20.9955 17.7085 21.3451C17.7055 21.6947 17.5652 22.0291 17.318 22.2763C17.0708 22.5235 16.7364 22.6638 16.3868 22.6668C16.0372 22.6698 15.7004 22.5354 15.4489 22.2926L6.58624 13.4312C6.40039 13.2455 6.25295 13.025 6.15236 12.7822C6.05177 12.5395 6 12.2794 6 12.0166C6 11.7538 6.05177 11.4936 6.15236 11.2508C6.25295 11.0082 6.40039 10.7876 6.58624 10.6019L15.4489 1.74055C15.5719 1.6132 15.7191 1.51163 15.8817 1.44175C16.0444 1.37187 16.2193 1.33508 16.3964 1.33355C16.5735 1.332 16.7489 1.36575 16.9128 1.43279C17.0767 1.49983 17.2256 1.59883 17.3508 1.72401C17.476 1.84921 17.5749 1.99808 17.642 2.16193C17.7091 2.3258 17.7428 2.50137 17.7412 2.67841C17.7397 2.85545 17.7029 3.03041 17.6331 3.19308C17.5632 3.35576 17.4616 3.50288 17.3343 3.62588L8.94357 12.0166L17.3343 20.4072Z" fill="white"/>
</svg>
