<svg width="24" height="24" viewBox="0 0 24 24" fill="none" xmlns="http://www.w3.org/2000/svg">
<path d="M7.99909 3.59311C7.75621 3.34164 7.62182 3.00484 7.62486 2.65524C7.6279 2.30564 7.76812 1.97123 8.01533 1.72401C8.26255 1.4768 8.59696 1.33657 8.94656 1.33355C9.29616 1.33051 9.63296 1.46489 9.88442 1.70777L18.7471 10.5691C18.9329 10.7548 19.0804 10.9754 19.1809 11.2182C19.2816 11.4608 19.3333 11.721 19.3333 11.9838C19.3333 12.2466 19.2816 12.5067 19.1809 12.7495C19.0804 12.9922 18.9329 13.2127 18.7471 13.3984L9.88442 22.2598C9.76142 22.3871 9.61431 22.4887 9.45163 22.5586C9.28896 22.6284 9.114 22.6652 8.93696 22.6668C8.75992 22.6683 8.58434 22.6346 8.42049 22.5675C8.25662 22.5006 8.10776 22.4015 7.98257 22.2763C7.85737 22.1511 7.75837 22.0023 7.69133 21.8384C7.62429 21.6746 7.59056 21.499 7.59209 21.3219C7.59362 21.1448 7.63041 20.9699 7.70029 20.8072C7.77017 20.6446 7.87174 20.4975 7.99909 20.3744L16.3897 11.9838L7.99909 3.59311Z" fill="white"/>
</svg>
