<svg width="25" height="16" viewBox="0 0 25 16" fill="none" xmlns="http://www.w3.org/2000/svg">
<path fill-rule="evenodd" clip-rule="evenodd" d="M25 1.14286C25 0.511675 24.4404 0 23.75 0H1.25C0.559647 0 0 0.511675 0 1.14286C0 1.77404 0.559647 2.28571 1.25 2.28571H23.75C24.4404 2.28571 25 1.77404 25 1.14286Z" fill="#0D1E46"/>
<path fill-rule="evenodd" clip-rule="evenodd" d="M25 8C25 7.36882 24.4404 6.85714 23.75 6.85714H1.25C0.559647 6.85714 0 7.36882 0 8C0 8.63118 0.559647 9.14286 1.25 9.14286H23.75C24.4404 9.14286 25 8.63118 25 8Z" fill="#0D1E46"/>
<path fill-rule="evenodd" clip-rule="evenodd" d="M25 14.8571C25 14.226 24.4404 13.7143 23.75 13.7143H1.25C0.559645 13.7143 0 14.226 0 14.8571C0 15.4883 0.559645 16 1.25 16H23.75C24.4404 16 25 15.4883 25 14.8571Z" fill="#0D1E46"/>
</svg>
