<svg width="24" height="24" viewBox="0 0 24 24" fill="none" xmlns="http://www.w3.org/2000/svg">
<path d="M23.5227 0.477286C24.1591 1.11367 24.1591 2.14545 23.5227 2.78183L14.3045 12L23.5227 21.2182C24.1591 21.8546 24.1591 22.8863 23.5227 23.5227C22.8863 24.1591 21.8546 24.1591 21.2182 23.5227L12 14.3045L2.78183 23.5227C2.14545 24.1591 1.11367 24.1591 0.477286 23.5227C-0.159096 22.8863 -0.159096 21.8546 0.477286 21.2182L9.69546 12L0.477286 2.78183C-0.159096 2.14545 -0.159096 1.11367 0.477286 0.477288C1.11367 -0.159094 2.14545 -0.159094 2.78183 0.477288L12 9.69546L21.2182 0.477286C21.8546 -0.159096 22.8863 -0.159096 23.5227 0.477286Z" fill="#007CC5"/>
</svg>
