<svg width="22" height="22" viewBox="0 0 22 22" fill="none" xmlns="http://www.w3.org/2000/svg">
<path d="M1 21H17M9 1C8.04 2.33333 8.04 4.11111 9 5.44444M5.8 1C4.84 2.33333 4.84 4.11111 5.8 5.44444M12.2 1C11.24 2.33333 11.24 4.11111 12.2 5.44444M1.8 7.66667V12.2593C1.8 15.8148 5 18.7778 9 18.7778C13 18.7778 16.2 15.8148 16.2 12.2593V7.66667H1.8ZM18.6 15.0741C17.24 15.0741 16.2 14.1111 16.2 12.8519V10.6296C16.2 9.44444 17.24 8.40741 18.6 8.40741C19.88 8.40741 21 9.37037 21 10.6296V12.8519C21 14.1111 19.96 15.0741 18.6 15.0741Z" stroke="white" stroke-width="2" stroke-miterlimit="10" stroke-linecap="round" stroke-linejoin="round"/>
</svg>
