<svg width="1023" height="1023" viewBox="0 0 1023 1023" fill="none" xmlns="http://www.w3.org/2000/svg">
<path d="M666.527 986.913L684.04 995.155L691.251 979.702L708.765 984.853L714.946 967.34L699.493 962.189L705.674 946.736L721.127 952.917L714.946 967.34L734.519 973.521L739.67 958.068L757.183 962.189L761.304 943.646L696.402 924.072L666.527 986.913Z" fill="white"/>
<path d="M565.569 1009.58L578.962 1019.88L591.324 1007.52L604.716 1015.76L617.078 1000.31L602.656 991.034L612.958 977.642L626.35 986.913L617.078 1000.31L631.501 1009.58L642.833 996.185L657.256 1003.4L666.527 986.913L606.777 952.917L565.569 1009.58Z" fill="white"/>
<path d="M460.491 1009.58L471.823 1022.97L486.245 1011.64L498.608 1024L513.03 1011.64L499.638 999.276L513.03 985.883L526.423 999.276L513.03 1011.64L526.423 1024L539.815 1012.67L553.207 1022.97L565.569 1009.58L513.03 962.189L460.491 1009.58Z" fill="white"/>
<path d="M358.503 985.883L366.744 1002.37L383.227 996.185L392.499 1009.58L410.012 1000.31L399.71 985.883L414.133 976.612L424.435 991.034L410.012 1000.31L420.314 1015.76L434.736 1006.49L447.099 1019.88L460.491 1009.58L419.284 952.917L358.503 985.883Z" fill="white"/>
<path d="M263.726 943.646L268.877 962.189L286.39 958.068L292.571 974.551L311.115 968.37L304.934 952.917L320.386 947.767L325.537 963.219L311.115 968.37L317.296 985.883L334.809 979.702L340.99 995.155L358.503 985.883L330.688 924.072L263.726 943.646Z" fill="white"/>
<path d="M181.312 881.835V901.408H199.855L200.885 917.891L220.459 915.831L218.398 899.348L234.881 898.318L236.942 914.801L220.459 915.831L222.519 933.344L242.093 932.314L246.213 948.797L263.726 943.646L249.304 877.714L181.312 881.835Z" fill="white"/>
<path d="M110.229 806.632L108.169 826.205L125.682 827.235L124.652 846.809L143.195 845.779V829.296H160.708V845.779H143.195L142.165 865.352H160.708V883.895L181.312 881.835L179.252 812.813L110.229 806.632Z" fill="white"/>
<path d="M58.7203 714.946L50.4789 734.519L67.9919 739.67L63.8712 758.213L82.4145 762.334L86.5352 746.881L100.958 751.002L97.8672 765.425L82.4145 762.334L77.2636 781.907L94.7767 784.998L91.6861 804.571L110.229 806.632L123.622 737.61L58.7203 714.946Z" fill="white"/>
<path d="M25.7545 616.048L14.4225 631.501L29.8753 640.773L21.6338 658.286L39.1469 666.527L46.3581 652.105L60.7807 659.316L54.5996 673.738L39.1469 666.527L29.8753 683.01L47.3883 690.221L39.1469 708.765L58.7203 714.946L85.505 652.105L25.7545 616.048Z" fill="white"/>
<path d="M14.4225 513.03L0 526.423L14.4225 539.815L2.06036 552.177L18.5433 565.569L29.8753 553.207L41.2072 563.509L30.9054 575.871L18.5433 565.569L4.12072 578.962L20.6036 591.324L8.24145 604.716L25.7545 616.048L65.9316 560.418L14.4225 513.03Z" fill="white"/>
<path d="M25.7545 408.982L8.24145 418.254L20.6036 434.736L4.12072 445.038L16.4829 460.491L30.9054 450.189L41.2072 463.581L27.8149 474.913L16.4829 460.491L2.06036 471.823L15.4527 487.276L0 499.638L14.4225 513.03L65.9316 465.642L25.7545 408.982Z" fill="white"/>
<path d="M58.7203 309.054L39.1469 317.296L47.3883 334.809L29.8753 340.99L38.1167 358.503L54.5996 351.292L61.8109 365.714L47.3883 373.956L38.1167 358.503L20.6036 368.805L30.9054 383.227L14.4225 393.529L25.7545 408.982L85.505 373.956L58.7203 309.054Z" fill="white"/>
<path d="M109.199 220.459L90.6559 222.519L93.7465 242.093L75.2032 246.213L79.3239 264.757L96.837 260.636L100.958 277.119L84.4748 282.27L79.3239 264.757L61.8109 267.847L66.9618 286.39L50.4789 291.541L58.7203 309.054L123.622 288.451L109.199 220.459Z" fill="white"/>
<path d="M180.282 143.195L160.708 141.135L159.678 159.678H141.135L142.165 180.282H160.708V198.825H143.195L142.165 180.282H123.622L124.652 199.855L106.109 200.885L109.199 220.459L179.252 212.217L180.282 143.195Z" fill="white"/>
<path d="M263.726 81.3843L244.153 76.2334L241.062 92.7163L222.519 90.6559L220.459 110.229L236.942 111.26L235.911 127.742L219.429 126.712L220.459 110.229L199.855 109.199V125.682H180.282V143.195L249.304 149.376L263.726 81.3843Z" fill="white"/>
<path d="M360.563 39.1469L342.02 28.8451L333.779 46.3581L316.266 39.1469L310.084 56.66L325.537 62.841L319.356 78.2938L303.903 72.1127L310.084 56.66L291.541 50.4789L287.421 67.9919L267.847 62.841L263.726 81.3843L329.658 103.018L360.563 39.1469Z" fill="white"/>
<path d="M461.521 16.4829L447.099 4.12072L434.736 18.5433L420.314 8.24145L408.982 24.7243L424.435 35.0262L414.133 49.4487L399.71 40.1771L408.982 24.7243L393.529 14.4225L385.288 28.8451L368.805 20.6036L360.563 39.1469L420.314 73.1429L461.521 16.4829Z" fill="white"/>
<path d="M513.03 13.3924L499.638 0L487.276 13.3924L472.853 2.06036L461.521 16.4829L513.03 63.8712L565.569 16.4829L552.177 2.06036L539.815 12.3622L526.423 0L513.03 13.3924L526.423 25.7545L513.03 39.1469L499.638 26.7847L513.03 13.3924Z" fill="white"/>
<path d="M667.557 38.1167L659.316 21.6338L641.803 30.9054L632.531 14.4225L617.078 25.7545L626.35 40.1771L611.928 49.4487L602.656 35.0262L617.078 25.7545L605.746 8.24145L591.324 20.6036L579.992 4.12072L565.569 16.4829L605.746 73.1429L667.557 38.1167Z" fill="white"/>
<path d="M761.304 81.3843L758.213 62.841L739.67 66.9618L733.489 50.4789L715.976 56.66L723.187 74.173L706.704 80.3541L699.493 63.8712L715.976 56.66L708.765 39.1469L692.282 46.3581L686.101 30.9054L667.557 38.1167L695.372 101.988L696.402 101.666L761.304 81.3843Z" fill="white"/>
<path d="M846.809 143.195V124.652L827.235 125.682L826.205 108.169L806.632 110.229L809.722 126.712L792.209 128.773L790.149 112.29L806.632 110.229L803.541 91.6861L784.998 94.7767L781.907 77.2636L761.304 81.3843L776.757 148.346L846.809 143.195Z" fill="white"/>
<path d="M915.831 220.459L918.921 201.915L901.408 199.855V181.312L883.895 179.252V196.765H865.352V179.252H883.895V161.738H866.382L865.352 142.165L846.809 143.195V212.217L915.831 220.459Z" fill="white"/>
<path d="M968.37 310.084L974.551 292.571L957.038 286.39L962.189 268.877L944.676 263.726L939.525 280.209L924.072 275.058L929.223 258.575L944.676 263.726L949.827 246.213L932.314 242.093L934.374 223.549L915.831 220.459L902.439 289.481L968.37 310.084Z" fill="white"/>
<path d="M1000.31 410.012L1010.61 394.559L994.125 383.227L1003.4 367.775L986.913 359.533L978.672 374.986L963.219 366.744L971.461 351.292L986.913 359.533L995.155 342.02L978.672 334.809L984.853 317.296L968.37 310.084L940.555 373.956L1000.31 410.012Z" fill="white"/>
<path d="M1010.61 513.03L1024 499.638L1010.61 487.276L1021.94 473.883L1008.55 461.521L998.245 473.883L984.853 463.581L995.155 451.219L1008.55 461.521L1019.88 446.068L1005.46 434.736L1014.73 420.314L1000.31 410.012L961.159 465.642L1010.61 513.03Z" fill="white"/>
<path d="M999.276 618.109L1015.76 605.746L1005.46 590.294L1018.85 578.962L1008.55 565.569L995.155 575.871L983.823 563.509L997.215 552.177L1008.55 565.569L1021.94 553.207L1010.61 538.785L1024 525.392L1010.61 513.03L961.159 560.418L999.276 618.109Z" fill="white"/>
<path d="M966.31 715.976L983.823 709.795L977.642 691.251L994.125 684.04L985.883 666.527L970.431 674.769L963.219 659.316L978.672 651.074L985.883 666.527L1002.37 659.316L994.125 641.803L1008.55 632.531L999.276 618.109L940.555 651.074L966.31 715.976Z" fill="white"/>
<path d="M914.801 805.602L934.374 802.511L931.284 783.968L947.767 780.877L943.646 762.334L927.163 765.425L924.072 749.972L940.555 746.881L943.646 762.334L962.189 757.183L958.068 739.67L973.521 734.519L966.31 715.976L903.469 736.579L914.801 805.602Z" fill="white"/>
<path d="M844.748 881.835L865.352 882.865V865.352H883.895V846.809H865.352V828.266H883.895V846.809L901.408 844.748V826.205L917.891 824.145L914.801 805.602L846.809 813.843L844.748 881.835Z" fill="white"/>
<path d="M761.304 943.646L779.847 948.797L784.998 931.284L803.541 933.344L805.602 915.831L789.119 913.771L791.179 896.258L807.662 898.318L805.602 915.831L825.175 917.891L826.205 900.378L844.748 901.408V881.835L777.787 878.744L761.304 943.646Z" fill="white"/>
<path d="M737.61 902.439L733.489 918.921L748.942 923.042L753.062 907.59L737.61 902.439Z" fill="white"/>
<path d="M741.73 885.956L725.247 880.805L721.127 897.288L737.61 902.439L741.73 885.956Z" fill="white"/>
<path d="M760.274 873.594L743.791 869.473L741.73 885.956L756.153 890.076L760.274 873.594Z" fill="white"/>
<path d="M779.847 860.201L762.334 857.111L760.274 873.594L777.787 878.744L779.847 860.201Z" fill="white"/>
<path d="M797.36 845.779L780.877 843.718L779.847 860.201L796.33 862.262L797.36 845.779Z" fill="white"/>
<path d="M813.843 830.326L798.39 828.266L797.36 845.779L813.843 846.809V830.326Z" fill="white"/>
<path d="M813.843 846.809V863.292H830.326V847.839L813.843 846.809Z" fill="white"/>
<path d="M829.296 813.843H813.843V830.326H830.326L829.296 813.843Z" fill="white"/>
<path d="M846.809 796.33H829.296V813.843H846.809V796.33Z" fill="white"/>
<path d="M860.201 778.817L843.718 779.847L846.809 796.33L862.262 795.3L860.201 778.817Z" fill="white"/>
<path d="M876.684 777.787L878.744 794.27L895.227 793.239L893.167 776.757L876.684 777.787Z" fill="white"/>
<path d="M874.624 761.304L858.141 762.334L860.201 778.817L876.684 777.787L874.624 761.304Z" fill="white"/>
<path d="M885.956 741.73L869.473 744.821L874.624 761.304L890.076 758.213L885.956 741.73Z" fill="white"/>
<path d="M897.288 721.127L880.805 725.247L885.956 741.73L903.469 736.579L897.288 721.127Z" fill="white"/>
<path d="M907.59 701.553L892.137 706.704L897.288 721.127L913.771 715.976L907.59 701.553Z" fill="white"/>
<path d="M915.831 679.919L901.408 686.101L907.59 701.553L923.042 696.402L915.831 679.919Z" fill="white"/>
<path d="M923.042 696.402L930.253 710.825L946.736 705.674L939.525 690.221L923.042 696.402Z" fill="white"/>
<path d="M925.103 658.286L909.65 665.497L915.831 679.919L932.314 672.708L925.103 658.286Z" fill="white"/>
<path d="M933.344 636.652L917.891 644.893L925.103 658.286L940.555 651.074L933.344 636.652Z" fill="white"/>
<path d="M938.495 615.018L924.072 622.229L933.344 636.652L946.736 630.471L938.495 615.018Z" fill="white"/>
<path d="M943.646 592.354L929.223 601.626L938.495 615.018L952.917 606.777L943.646 592.354Z" fill="white"/>
<path d="M952.917 606.777L962.189 620.169L976.612 611.928L967.34 598.535L952.917 606.777Z" fill="white"/>
<path d="M946.736 569.69L932.314 578.962L943.646 592.354L956.008 584.113L946.736 569.69Z" fill="white"/>
<path d="M948.797 547.026L934.374 557.328L946.736 569.69L961.159 560.418L948.797 547.026Z" fill="white"/>
<path d="M949.827 524.362L936.435 535.694L948.797 547.026L961.159 536.724L949.827 524.362Z" fill="white"/>
<path d="M949.827 501.698L936.435 513.03L949.827 524.362L962.189 513.03L949.827 501.698Z" fill="white"/>
<path d="M962.189 513.03L975.581 524.362L986.913 513.03L974.551 501.698L962.189 513.03Z" fill="white"/>
<path d="M948.797 478.004L936.435 490.366L949.827 501.698L961.159 489.336L948.797 478.004Z" fill="white"/>
<path d="M946.736 455.34L934.374 468.732L948.797 478.004L961.159 465.642L946.736 455.34Z" fill="white"/>
<path d="M942.616 432.676L931.284 447.099L946.736 455.34L957.038 441.948L942.616 432.676Z" fill="white"/>
<path d="M938.495 410.012L928.193 424.435L942.616 432.676L951.887 420.314L938.495 410.012Z" fill="white"/>
<path d="M951.887 420.314L967.34 428.555L976.612 415.163L962.189 405.891L951.887 420.314Z" fill="white"/>
<path d="M932.314 388.378L923.042 402.801L938.495 410.012L946.736 396.62L932.314 388.378Z" fill="white"/>
<path d="M926.133 366.744L916.861 382.197L932.314 388.378L940.555 373.956L926.133 366.744Z" fill="white"/>
<path d="M916.861 346.141L910.68 361.594L926.133 366.744L933.344 351.292L916.861 346.141Z" fill="white"/>
<path d="M909.65 324.507L900.378 340.99L916.861 346.141L924.072 329.658L909.65 324.507Z" fill="white"/>
<path d="M924.072 329.658L939.525 334.809L945.706 319.356L929.223 315.235L924.072 329.658Z" fill="white"/>
<path d="M897.288 304.934L892.137 320.386L909.65 324.507L913.771 310.084L897.288 304.934Z" fill="white"/>
<path d="M885.956 284.33L880.805 301.843L897.288 304.934L902.439 289.481L885.956 284.33Z" fill="white"/>
<path d="M873.594 265.787L869.473 282.27L885.956 284.33L890.076 268.877L873.594 265.787Z" fill="white"/>
<path d="M860.201 247.243L857.111 264.757L873.594 265.787L876.684 248.274L860.201 247.243Z" fill="white"/>
<path d="M876.684 248.274L893.167 247.243V231.791L877.714 232.821L876.684 248.274Z" fill="white"/>
<path d="M846.809 228.7L843.718 247.243H860.201L861.231 230.761L846.809 228.7Z" fill="white"/>
<path d="M830.326 212.217L829.296 228.7H846.809V212.217H830.326Z" fill="white"/>
<path d="M813.843 195.734L812.813 213.247L830.326 212.217V195.734H813.843Z" fill="white"/>
<path d="M797.36 181.312V197.795L813.843 195.734V179.252L797.36 181.312Z" fill="white"/>
<path d="M813.843 179.252L829.296 178.221L831.356 161.738L814.873 162.769L813.843 179.252Z" fill="white"/>
<path d="M778.817 166.889L779.847 183.372L797.36 181.312L796.33 164.829L778.817 166.889Z" fill="white"/>
<path d="M760.274 152.467L761.304 169.98L778.817 166.889L776.757 148.346L760.274 152.467Z" fill="white"/>
<path d="M740.7 140.105L742.761 157.618L760.274 152.467L757.183 135.984L740.7 140.105Z" fill="white"/>
<path d="M722.157 128.773L725.247 146.286L740.7 140.105L737.61 125.682L722.157 128.773Z" fill="white"/>
<path d="M737.61 125.682L755.123 120.531L753.062 101.666L734.519 107.139L737.61 125.682Z" fill="white"/>
<path d="M701.553 118.471L705.674 133.924L722.157 128.773L717.006 113.32L701.553 118.471Z" fill="white"/>
<path d="M680.95 109.199L686.101 125.682L701.553 118.471L695.429 102.14L680.95 109.199Z" fill="white"/>
<path d="M658.286 99.9276L664.467 116.41L680.95 109.199L673.738 92.7163L658.286 99.9276Z" fill="white"/>
<path d="M636.652 94.7767L643.863 109.199L658.286 99.9276L651.074 85.505L636.652 94.7767Z" fill="white"/>
<path d="M651.074 85.505L666.527 77.2636L660.346 61.8109L643.863 70.0523L651.074 85.505Z" fill="white"/>
<path d="M615.018 88.5956L623.26 103.018L636.652 94.7767L628.41 80.3541L615.018 88.5956Z" fill="white"/>
<path d="M593.384 82.4145L601.626 96.837L615.018 88.5956L605.746 73.1429L593.384 82.4145Z" fill="white"/>
<path d="M569.69 79.3239L579.992 93.7465L593.384 82.4145L583.082 70.0523L569.69 79.3239Z" fill="white"/>
<path d="M548.056 77.2636L557.328 89.6258L569.69 79.3239L560.418 66.9618L548.056 77.2636Z" fill="white"/>
<path d="M560.418 66.9618L573.811 54.5996L562.479 41.2072L549.086 52.5392L560.418 66.9618Z" fill="white"/>
<path d="M524.362 75.2032L535.694 88.5956L548.056 77.2636L536.724 63.8712L524.362 75.2032Z" fill="white"/>
<path d="M501.698 75.2032L513.03 88.5956L524.362 75.2032L513.03 63.8712L501.698 75.2032Z" fill="white"/>
<path d="M490.366 88.5956L501.698 75.2032L489.336 63.8712L479.034 77.2636L490.366 88.5956Z" fill="white"/>
<path d="M456.37 79.3239L468.732 90.6559L479.034 77.2636L466.672 65.9316L456.37 79.3239Z" fill="white"/>
<path d="M466.672 65.9316L475.944 53.5694L462.551 41.2072L453.28 55.6298L466.672 65.9316Z" fill="white"/>
<path d="M432.676 82.4145L446.068 92.7163L456.37 79.3239L442.978 69.0221L432.676 82.4145Z" fill="white"/>
<path d="M411.042 88.5956L424.435 96.837L432.676 82.4145L420.314 73.1429L411.042 88.5956Z" fill="white"/>
<path d="M389.408 93.7465L402.801 101.988L411.042 88.5956L395.59 79.3239L389.408 93.7465Z" fill="white"/>
<path d="M373.956 85.505L382.197 70.0523L366.744 61.8109L359.887 78.2938L373.956 85.505Z" fill="white"/>
<path d="M366.744 100.958L381.167 108.169L389.408 93.7465L373.956 85.505L366.744 100.958Z" fill="white"/>
<path d="M346.141 109.199L360.563 116.41L366.744 100.958L352.322 93.7465L346.141 109.199Z" fill="white"/>
<path d="M324.507 118.471L339.96 123.622L346.141 109.199L329.658 103.018L324.507 118.471Z" fill="white"/>
<path d="M304.934 128.773L319.356 133.924L324.507 118.471L309.054 113.32L304.934 128.773Z" fill="white"/>
<path d="M285.36 140.105L300.813 144.225L304.934 128.773L288.451 124.652L285.36 140.105Z" fill="white"/>
<path d="M288.451 124.652L291.541 107.139L276.089 101.988L271.968 119.501L288.451 124.652Z" fill="white"/>
<path d="M265.787 152.467L282.27 155.557L285.36 140.105L268.877 135.984L265.787 152.467Z" fill="white"/>
<path d="M247.243 165.859L263.726 168.95L265.787 152.467L249.304 149.376L247.243 165.859Z" fill="white"/>
<path d="M228.7 180.282L245.183 182.342L247.243 165.859L229.73 164.829L228.7 180.282Z" fill="white"/>
<path d="M212.217 195.734L228.7 196.765V180.282L213.247 179.252L212.217 195.734Z" fill="white"/>
<path d="M213.247 179.252V160.708L195.734 159.678L196.765 178.221L213.247 179.252Z" fill="white"/>
<path d="M195.734 212.217H212.217V195.734L195.734 194.704V212.217Z" fill="white"/>
<path d="M180.282 228.7H196.765L195.734 212.217H179.252L180.282 228.7Z" fill="white"/>
<path d="M165.859 246.213H182.342L180.282 228.7L163.799 230.761L165.859 246.213Z" fill="white"/>
<path d="M152.467 264.757L168.95 263.726L165.859 246.213L149.376 248.274L152.467 264.757Z" fill="white"/>
<path d="M149.376 248.274L147.316 231.791L128.773 233.851L132.893 251.364L149.376 248.274Z" fill="white"/>
<path d="M141.135 284.33L156.588 281.239L152.467 264.757L137.014 266.817L141.135 284.33Z" fill="white"/>
<path d="M129.803 303.903L146.286 300.813L141.135 284.33L123.622 288.451L129.803 303.903Z" fill="white"/>
<path d="M119.501 324.507L134.954 320.386L129.803 303.903L113.32 308.024L119.501 324.507Z" fill="white"/>
<path d="M103.018 329.658L95.8068 314.205L79.3239 320.386L86.5352 335.839L103.018 329.658Z" fill="white"/>
<path d="M109.199 345.111L125.682 339.96L119.501 324.507L103.018 329.658L109.199 345.111Z" fill="white"/>
<path d="M93.7465 351.292L101.291 366.611L116.41 360.563L109.199 345.111L93.7465 351.292Z" fill="white"/>
<path d="M93.7465 389.408L109.199 382.197L100.958 366.744L85.505 373.956L93.7465 389.408Z" fill="white"/>
<path d="M88.5956 411.042L103.018 402.801L93.7465 389.408L79.3239 396.62L88.5956 411.042Z" fill="white"/>
<path d="M73.1429 419.284L63.8712 404.861L48.4185 414.133L58.7203 428.555L73.1429 419.284Z" fill="white"/>
<path d="M83.4447 433.706L97.8672 424.435L88.5956 411.042L73.1429 419.284L83.4447 433.706Z" fill="white"/>
<path d="M76.2334 478.004L90.6559 468.732L79.3239 456.37L65.9316 465.642L76.2334 478.004Z" fill="white"/>
<path d="M79.3239 456.37L92.7163 447.099L83.4447 433.706L69.0221 442.978L79.3239 456.37Z" fill="white"/>
<path d="M88.5956 490.366L76.2334 478.004L63.8712 489.336L76.2334 501.698L88.5956 490.366Z" fill="white"/>
<path d="M63.8712 513.03L51.5091 500.668L38.1167 513.03L51.5091 524.362L63.8712 513.03Z" fill="white"/>
<path d="M76.2334 524.362L88.5956 513.03L76.2334 501.698L63.8712 513.03L76.2334 524.362Z" fill="white"/>
<path d="M78.2938 547.026L88.5956 535.694L76.2334 524.362L65.9316 536.724L78.2938 547.026Z" fill="white"/>
<path d="M79.3239 569.69L91.6861 558.358L78.2938 547.026L65.9316 560.418L79.3239 569.69Z" fill="white"/>
<path d="M84.4748 592.354L92.7163 579.992L79.3239 569.69L69.0221 584.113L84.4748 592.354Z" fill="white"/>
<path d="M88.5956 615.018L98.8974 601.626L84.4748 592.354L74.173 605.746L88.5956 615.018Z" fill="white"/>
<path d="M74.173 605.746L58.7203 596.475L48.4185 610.897L62.841 620.169L74.173 605.746Z" fill="white"/>
<path d="M94.7767 637.682L104.048 623.26L88.5956 615.018L79.3239 629.441L94.7767 637.682Z" fill="white"/>
<path d="M100.958 659.316L110.229 644.893L94.7767 637.682L85.505 652.105L100.958 659.316Z" fill="white"/>
<path d="M109.199 680.95L116.41 664.467L100.958 659.316L94.7767 674.769L109.199 680.95Z" fill="white"/>
<path d="M118.471 701.553L125.682 686.101L109.199 680.95L101.988 696.402L118.471 701.553Z" fill="white"/>
<path d="M101.988 696.402L87.5654 690.221L80.3541 705.674L96.837 711.855L101.988 696.402Z" fill="white"/>
<path d="M128.773 721.127L134.954 704.644L118.471 701.553L113.32 717.006L128.773 721.127Z" fill="white"/>
<path d="M140.105 741.73L146.286 725.247L128.773 721.127L123.622 737.61L140.105 741.73Z" fill="white"/>
<path d="M153.497 760.274L157.618 744.821L140.105 741.73L137.014 758.213L153.497 760.274Z" fill="white"/>
<path d="M166.889 777.787L169.98 761.304L153.497 760.274L149.376 776.757L166.889 777.787Z" fill="white"/>
<path d="M149.376 776.757L133.924 775.726L130.833 793.239L147.316 794.27L149.376 776.757Z" fill="white"/>
<path d="M181.312 796.33L184.402 778.817L166.889 777.787L164.829 795.3L181.312 796.33Z" fill="white"/>
<path d="M196.765 812.813L198.825 796.33H181.312L179.252 812.813H196.765Z" fill="white"/>
<path d="M212.217 830.326L214.278 812.813H196.765V830.326H212.217Z" fill="white"/>
<path d="M229.73 844.748V829.296L212.217 830.326V845.779L229.73 844.748Z" fill="white"/>
<path d="M212.217 845.779H195.734V863.292H212.217V845.779Z" fill="white"/>
<path d="M247.243 860.201L246.213 844.748H229.73L230.761 861.231L247.243 860.201Z" fill="white"/>
<path d="M265.787 873.594L264.757 857.111L247.243 860.201L249.304 877.714L265.787 873.594Z" fill="white"/>
<path d="M284.33 885.956L281.239 869.473L265.787 873.594L268.877 889.046L284.33 885.956Z" fill="white"/>
<path d="M287.421 902.439L271.968 907.59L275.058 924.072L291.541 918.921L287.421 902.439Z" fill="white"/>
<path d="M304.934 897.288L301.843 880.805L284.33 885.956L287.421 902.439L304.934 897.288Z" fill="white"/>
<path d="M324.507 908.62L320.386 892.137L304.934 897.288L310.084 912.74L324.507 908.62Z" fill="white"/>
<path d="M345.111 918.921L339.96 901.408L324.507 908.62L330.688 924.072L345.111 918.921Z" fill="white"/>
<path d="M365.714 925.103L359.533 909.65L345.111 918.921L351.292 932.314L365.714 925.103Z" fill="white"/>
<path d="M388.378 932.314L382.197 916.861L365.714 925.103L373.956 939.525L388.378 932.314Z" fill="white"/>
<path d="M373.956 939.525L358.503 947.767L365.714 963.219L381.167 956.008L373.956 939.525Z" fill="white"/>
<path d="M411.042 938.495L403.831 924.072L388.378 932.314L395.59 946.736L411.042 938.495Z" fill="white"/>
<path d="M411.042 938.495L419.284 952.917L433.706 943.646L424.435 929.223L411.042 938.495Z" fill="white"/>
<path d="M456.37 946.736L447.099 933.344L433.706 943.646L442.978 957.038L456.37 946.736Z" fill="white"/>
<path d="M465.642 959.099L452.249 970.431L463.581 984.853L476.974 973.521L465.642 959.099Z" fill="white"/>
<path d="M479.034 948.797L468.732 936.435L456.37 946.736L465.642 959.099L479.034 948.797Z" fill="white"/>
<path d="M501.698 949.827L490.366 937.465L479.034 948.797L490.366 961.159L501.698 949.827Z" fill="white"/>
<path d="M524.362 949.827L513.03 938.495L501.698 949.827L513.03 962.189L524.362 949.827Z" fill="white"/>
<path d="M547.026 948.797L534.664 937.465L524.362 949.827L536.724 961.159L547.026 948.797Z" fill="white"/>
<path d="M570.72 946.736L558.358 935.404L547.026 948.797L560.418 960.129L570.72 946.736Z" fill="white"/>
<path d="M592.354 942.616L579.992 932.314L570.72 946.736L584.113 957.038L592.354 942.616Z" fill="white"/>
<path d="M615.018 937.465L601.626 928.193L592.354 942.616L606.777 952.917L615.018 937.465Z" fill="white"/>
<path d="M560.418 960.129L550.117 972.491L562.479 983.823L572.781 971.461L560.418 960.129Z" fill="white"/>
<path d="M637.682 930.253L623.26 922.012L615.018 937.465L630.471 946.736L637.682 930.253Z" fill="white"/>
<path d="M659.316 925.103L643.863 915.831L637.682 930.253L651.074 939.525L659.316 925.103Z" fill="white"/>
<path d="M680.95 916.861L664.467 909.65L659.316 925.103L673.738 932.314L680.95 916.861Z" fill="white"/>
<path d="M651.074 939.525L643.863 953.948L659.316 963.219L666.527 947.767L651.074 939.525Z" fill="white"/>
<path d="M701.553 908.62L686.101 900.378L680.95 916.861L696.402 924.072L701.553 908.62Z" fill="white"/>
<path d="M721.127 897.288L705.674 891.107L701.553 908.62L717.006 913.771L721.127 897.288Z" fill="white"/>
</svg>
