<svg width="2000" height="2000" viewBox="0 0 2000 2000" fill="none" xmlns="http://www.w3.org/2000/svg">
<path d="M1301.81 1927.57L1336.02 1943.66L1350.1 1913.48L1384.31 1923.54L1396.38 1889.34L1366.2 1879.28L1378.27 1849.09L1408.45 1861.17L1396.38 1889.34L1434.61 1901.41L1444.67 1871.23L1478.87 1879.28L1486.92 1843.06L1360.16 1804.83L1301.81 1927.57Z" fill="white"/>
<path d="M1104.63 1971.83L1130.78 1991.95L1154.93 1967.81L1181.09 1983.9L1205.23 1953.72L1177.06 1935.61L1197.18 1909.46L1223.34 1927.57L1205.23 1953.72L1233.4 1971.83L1255.53 1945.67L1283.7 1959.76L1301.81 1927.57L1185.11 1861.17L1104.63 1971.83Z" fill="white"/>
<path d="M899.396 1971.83L921.529 1997.99L949.698 1975.86L973.843 2000L1002.01 1975.86L975.855 1951.71L1002.01 1925.55L1028.17 1951.71L1002.01 1975.86L1028.17 2000L1054.33 1977.87L1080.48 1997.99L1104.63 1971.83L1002.01 1879.28L899.396 1971.83Z" fill="white"/>
<path d="M700.201 1925.55L716.298 1957.75L748.491 1945.67L766.6 1971.83L800.805 1953.72L780.684 1925.55L808.853 1907.44L828.974 1935.61L800.805 1953.72L820.926 1983.9L849.095 1965.79L873.239 1991.95L899.396 1971.83L818.913 1861.17L700.201 1925.55Z" fill="white"/>
<path d="M515.091 1843.06L525.151 1879.28L559.356 1871.23L571.429 1903.42L607.646 1891.35L595.573 1861.17L625.754 1851.11L635.815 1881.29L607.646 1891.35L619.718 1925.55L653.924 1913.48L665.996 1943.66L700.201 1925.55L645.875 1804.83L515.091 1843.06Z" fill="white"/>
<path d="M354.125 1722.33V1760.56H390.342L392.354 1792.76L430.583 1788.73L426.559 1756.54L458.752 1754.53L462.777 1786.72L430.583 1788.73L434.608 1822.94L472.837 1820.93L480.885 1853.12L515.091 1843.06L486.922 1714.29L354.125 1722.33Z" fill="white"/>
<path d="M215.292 1575.45L211.268 1613.68L245.473 1615.69L243.461 1653.92L279.678 1651.91V1619.72H313.883V1651.91H279.678L277.666 1690.14H313.883V1726.36L354.125 1722.33L350.101 1587.53L215.292 1575.45Z" fill="white"/>
<path d="M114.688 1396.38L98.5915 1434.61L132.797 1444.67L124.748 1480.89L160.966 1488.93L169.014 1458.75L197.183 1466.8L191.147 1494.97L160.966 1488.93L150.905 1527.16L185.111 1533.2L179.074 1571.43L215.292 1575.45L241.449 1440.64L114.688 1396.38Z" fill="white"/>
<path d="M50.3018 1203.22L28.169 1233.4L58.3501 1251.51L42.2535 1285.71L76.4587 1301.81L90.5433 1273.64L118.712 1287.73L106.64 1315.9L76.4587 1301.81L58.3501 1334L92.5553 1348.09L76.4587 1384.31L114.688 1396.38L167.002 1273.64L50.3018 1203.22Z" fill="white"/>
<path d="M28.169 1002.01L0 1028.17L28.169 1054.33L4.02414 1078.47L36.2173 1104.63L58.3501 1080.48L80.4829 1100.6L60.3622 1124.75L36.2173 1104.63L8.04829 1130.78L40.2414 1154.93L16.0966 1181.09L50.3018 1203.22L128.773 1094.57L28.169 1002.01Z" fill="white"/>
<path d="M50.3018 798.793L16.0966 816.901L40.2414 849.095L8.04829 869.215L32.1932 899.396L60.3622 879.276L80.4829 905.433L54.326 927.565L32.1932 899.396L4.02414 921.529L30.1811 951.71L0 975.855L28.169 1002.01L128.773 909.457L50.3018 798.793Z" fill="white"/>
<path d="M114.688 603.622L76.4587 619.718L92.5553 653.924L58.3501 665.996L74.4467 700.201L106.64 686.117L120.724 714.286L92.5553 730.382L74.4467 700.201L40.2414 720.322L60.3622 748.491L28.169 768.612L50.3018 798.793L167.002 730.382L114.688 603.622Z" fill="white"/>
<path d="M213.28 430.583L177.062 434.608L183.099 472.837L146.881 480.885L154.93 517.103L189.135 509.054L197.183 541.247L164.99 551.308L154.93 517.103L120.724 523.139L130.785 559.356L98.5915 569.416L114.688 603.622L241.449 563.38L213.28 430.583Z" fill="white"/>
<path d="M352.113 279.678L313.883 275.654L311.871 311.871H275.654L277.666 352.113H313.883V388.33H279.678L277.666 352.113H241.449L243.461 390.342L207.243 392.354L213.28 430.583L350.101 414.487L352.113 279.678Z" fill="white"/>
<path d="M515.091 158.954L476.861 148.893L470.825 181.087L434.608 177.062L430.583 215.292L462.777 217.304L460.765 249.497L428.571 247.485L430.583 215.292L390.342 213.28V245.473H352.113V279.678L486.922 291.75L515.091 158.954Z" fill="white"/>
<path d="M704.225 76.4587L668.008 56.338L651.911 90.5433L617.706 76.4587L605.634 110.664L635.815 122.736L623.742 152.917L593.561 140.845L605.634 110.664L569.416 98.5915L561.368 132.797L523.139 122.736L515.091 158.954L643.863 201.207L704.225 76.4587Z" fill="white"/>
<path d="M901.408 32.1932L873.239 8.04829L849.095 36.2173L820.926 16.0966L798.793 48.2897L828.974 68.4105L808.853 96.5795L780.684 78.4708L798.793 48.2897L768.612 28.169L752.515 56.338L720.322 40.2414L704.225 76.4587L820.926 142.857L901.408 32.1932Z" fill="white"/>
<path d="M1002.01 26.1569L975.855 0L951.71 26.1569L923.541 4.02414L901.408 32.1932L1002.01 124.748L1104.63 32.1932L1078.47 4.02414L1054.33 24.1449L1028.17 0L1002.01 26.1569L1028.17 50.3018L1002.01 76.4587L975.855 52.3139L1002.01 26.1569Z" fill="white"/>
<path d="M1303.82 74.4467L1287.73 42.2535L1253.52 60.3622L1235.41 28.169L1205.23 50.3018L1223.34 78.4708L1195.17 96.5795L1177.06 68.4105L1205.23 50.3018L1183.1 16.0966L1154.93 40.2414L1132.8 8.04829L1104.63 32.1932L1183.1 142.857L1303.82 74.4467Z" fill="white"/>
<path d="M1486.92 158.954L1480.89 122.736L1444.67 130.785L1432.6 98.5915L1398.39 110.664L1412.47 144.869L1380.28 156.942L1366.2 124.748L1398.39 110.664L1384.31 76.4587L1352.11 90.5433L1340.04 60.3622L1303.82 74.4467L1358.15 199.195L1360.16 198.566L1486.92 158.954Z" fill="white"/>
<path d="M1653.92 279.678V243.461L1615.69 245.473L1613.68 211.268L1575.45 215.292L1581.49 247.485L1547.28 251.509L1543.26 219.316L1575.45 215.292L1569.42 179.074L1533.2 185.111L1527.16 150.905L1486.92 158.954L1517.1 289.738L1653.92 279.678Z" fill="white"/>
<path d="M1788.73 430.583L1794.77 394.366L1760.56 390.342V354.125L1726.36 350.101V384.306H1690.14V350.101H1726.36V315.895H1692.15L1690.14 277.666L1653.92 279.678V414.487L1788.73 430.583Z" fill="white"/>
<path d="M1891.35 605.634L1903.42 571.429L1869.22 559.356L1879.28 525.151L1845.07 515.091L1835.01 547.284L1804.83 537.223L1814.89 505.03L1845.07 515.091L1855.13 480.885L1820.93 472.837L1824.95 436.62L1788.73 430.583L1762.58 565.392L1891.35 605.634Z" fill="white"/>
<path d="M1953.72 800.805L1973.84 770.624L1941.65 748.491L1959.76 718.31L1927.57 702.213L1911.47 732.394L1881.29 716.298L1897.38 686.117L1927.57 702.213L1943.66 668.008L1911.47 653.924L1923.54 619.718L1891.35 605.634L1837.02 730.382L1953.72 800.805Z" fill="white"/>
<path d="M1973.84 1002.01L2000 975.855L1973.84 951.71L1995.98 925.553L1969.82 901.408L1949.7 925.553L1923.54 905.433L1943.66 881.288L1969.82 901.408L1991.95 871.227L1963.78 849.095L1981.89 820.926L1953.72 800.805L1877.26 909.457L1973.84 1002.01Z" fill="white"/>
<path d="M1951.71 1207.24L1983.9 1183.1L1963.78 1152.92L1989.94 1130.78L1969.82 1104.63L1943.66 1124.75L1921.53 1100.6L1947.69 1078.47L1969.82 1104.63L1995.98 1080.48L1973.84 1052.31L2000 1026.16L1973.84 1002.01L1877.26 1094.57L1951.71 1207.24Z" fill="white"/>
<path d="M1887.32 1398.39L1921.53 1386.32L1909.46 1350.1L1941.65 1336.02L1925.55 1301.81L1895.37 1317.91L1881.29 1287.73L1911.47 1271.63L1925.55 1301.81L1957.75 1287.73L1941.65 1253.52L1969.82 1235.41L1951.71 1207.24L1837.02 1271.63L1887.32 1398.39Z" fill="white"/>
<path d="M1786.72 1573.44L1824.95 1567.4L1818.91 1531.19L1851.11 1525.15L1843.06 1488.93L1810.87 1494.97L1804.83 1464.79L1837.02 1458.75L1843.06 1488.93L1879.28 1478.87L1871.23 1444.67L1901.41 1434.61L1887.32 1398.39L1764.59 1438.63L1786.72 1573.44Z" fill="white"/>
<path d="M1649.9 1722.33L1690.14 1724.35V1690.14H1726.36V1653.92H1690.14V1617.71H1726.36V1653.92L1760.56 1649.9V1613.68L1792.76 1609.66L1786.72 1573.44L1653.92 1589.54L1649.9 1722.33Z" fill="white"/>
<path d="M1486.92 1843.06L1523.14 1853.12L1533.2 1818.91L1569.42 1822.94L1573.44 1788.73L1541.25 1784.71L1545.27 1750.5L1577.46 1754.53L1573.44 1788.73L1611.67 1792.76L1613.68 1758.55L1649.9 1760.56V1722.33L1519.11 1716.3L1486.92 1843.06Z" fill="white"/>
<path d="M1440.64 1762.58L1432.6 1794.77L1462.78 1802.82L1470.82 1772.64L1440.64 1762.58Z" fill="white"/>
<path d="M1448.69 1730.38L1416.5 1720.32L1408.45 1752.51L1440.64 1762.58L1448.69 1730.38Z" fill="white"/>
<path d="M1484.91 1706.24L1452.72 1698.19L1448.69 1730.38L1476.86 1738.43L1484.91 1706.24Z" fill="white"/>
<path d="M1523.14 1680.08L1488.93 1674.04L1484.91 1706.24L1519.11 1716.3L1523.14 1680.08Z" fill="white"/>
<path d="M1557.34 1651.91L1525.15 1647.89L1523.14 1680.08L1555.33 1684.1L1557.34 1651.91Z" fill="white"/>
<path d="M1589.54 1621.73L1559.36 1617.71L1557.34 1651.91L1589.54 1653.92V1621.73Z" fill="white"/>
<path d="M1589.54 1653.92V1686.12H1621.73V1655.94L1589.54 1653.92Z" fill="white"/>
<path d="M1619.72 1589.54H1589.54V1621.73H1621.73L1619.72 1589.54Z" fill="white"/>
<path d="M1653.92 1555.33H1619.72V1589.54H1653.92V1555.33Z" fill="white"/>
<path d="M1680.08 1521.13L1647.89 1523.14L1653.92 1555.33L1684.1 1553.32L1680.08 1521.13Z" fill="white"/>
<path d="M1712.27 1519.11L1716.3 1551.31L1748.49 1549.3L1744.47 1517.1L1712.27 1519.11Z" fill="white"/>
<path d="M1708.25 1486.92L1676.06 1488.93L1680.08 1521.13L1712.27 1519.11L1708.25 1486.92Z" fill="white"/>
<path d="M1730.38 1448.69L1698.19 1454.73L1708.25 1486.92L1738.43 1480.89L1730.38 1448.69Z" fill="white"/>
<path d="M1752.51 1408.45L1720.32 1416.5L1730.38 1448.69L1764.59 1438.63L1752.51 1408.45Z" fill="white"/>
<path d="M1772.64 1370.22L1742.45 1380.28L1752.51 1408.45L1784.71 1398.39L1772.64 1370.22Z" fill="white"/>
<path d="M1788.73 1327.97L1760.56 1340.04L1772.64 1370.22L1802.82 1360.16L1788.73 1327.97Z" fill="white"/>
<path d="M1802.82 1360.16L1816.9 1388.33L1849.09 1378.27L1835.01 1348.09L1802.82 1360.16Z" fill="white"/>
<path d="M1806.84 1285.71L1776.66 1299.8L1788.73 1327.97L1820.93 1313.88L1806.84 1285.71Z" fill="white"/>
<path d="M1822.94 1243.46L1792.76 1259.56L1806.84 1285.71L1837.02 1271.63L1822.94 1243.46Z" fill="white"/>
<path d="M1833 1201.21L1804.83 1215.29L1822.94 1243.46L1849.09 1231.39L1833 1201.21Z" fill="white"/>
<path d="M1843.06 1156.94L1814.89 1175.05L1833 1201.21L1861.17 1185.11L1843.06 1156.94Z" fill="white"/>
<path d="M1861.17 1185.11L1879.28 1211.27L1907.44 1195.17L1889.34 1169.01L1861.17 1185.11Z" fill="white"/>
<path d="M1849.09 1112.68L1820.93 1130.78L1843.06 1156.94L1867.2 1140.85L1849.09 1112.68Z" fill="white"/>
<path d="M1853.12 1068.41L1824.95 1088.53L1849.09 1112.68L1877.26 1094.57L1853.12 1068.41Z" fill="white"/>
<path d="M1855.13 1024.14L1828.97 1046.28L1853.12 1068.41L1877.26 1048.29L1855.13 1024.14Z" fill="white"/>
<path d="M1855.13 979.879L1828.97 1002.01L1855.13 1024.14L1879.28 1002.01L1855.13 979.879Z" fill="white"/>
<path d="M1879.28 1002.01L1905.43 1024.14L1927.57 1002.01L1903.42 979.879L1879.28 1002.01Z" fill="white"/>
<path d="M1853.12 933.602L1828.97 957.746L1855.13 979.879L1877.26 955.734L1853.12 933.602Z" fill="white"/>
<path d="M1849.09 889.336L1824.95 915.493L1853.12 933.602L1877.26 909.457L1849.09 889.336Z" fill="white"/>
<path d="M1841.05 845.07L1818.91 873.239L1849.09 889.336L1869.22 863.179L1841.05 845.07Z" fill="white"/>
<path d="M1833 800.805L1812.88 828.974L1841.05 845.07L1859.15 820.926L1833 800.805Z" fill="white"/>
<path d="M1859.15 820.926L1889.34 837.022L1907.44 810.865L1879.28 792.756L1859.15 820.926Z" fill="white"/>
<path d="M1820.93 758.551L1802.82 786.72L1833 800.805L1849.09 774.648L1820.93 758.551Z" fill="white"/>
<path d="M1808.85 716.298L1790.74 746.479L1820.93 758.551L1837.02 730.382L1808.85 716.298Z" fill="white"/>
<path d="M1790.74 676.056L1778.67 706.237L1808.85 716.298L1822.94 686.117L1790.74 676.056Z" fill="white"/>
<path d="M1776.66 633.803L1758.55 665.996L1790.74 676.056L1804.83 643.863L1776.66 633.803Z" fill="white"/>
<path d="M1804.83 643.863L1835.01 653.924L1847.08 623.742L1814.89 615.694L1804.83 643.863Z" fill="white"/>
<path d="M1752.51 595.573L1742.45 625.754L1776.66 633.803L1784.71 605.634L1752.51 595.573Z" fill="white"/>
<path d="M1730.38 555.332L1720.32 589.537L1752.51 595.573L1762.58 565.392L1730.38 555.332Z" fill="white"/>
<path d="M1706.24 519.115L1698.19 551.308L1730.38 555.332L1738.43 525.151L1706.24 519.115Z" fill="white"/>
<path d="M1680.08 482.897L1674.04 517.103L1706.24 519.115L1712.27 484.909L1680.08 482.897Z" fill="white"/>
<path d="M1712.27 484.909L1744.47 482.897V452.716L1714.29 454.728L1712.27 484.909Z" fill="white"/>
<path d="M1653.92 446.68L1647.89 482.897H1680.08L1682.09 450.704L1653.92 446.68Z" fill="white"/>
<path d="M1621.73 414.487L1619.72 446.68H1653.92V414.487H1621.73Z" fill="white"/>
<path d="M1589.54 382.294L1587.53 416.499L1621.73 414.487V382.294H1589.54Z" fill="white"/>
<path d="M1557.34 354.125V386.318L1589.54 382.294V350.101L1557.34 354.125Z" fill="white"/>
<path d="M1589.54 350.101L1619.72 348.089L1623.74 315.895L1591.55 317.907L1589.54 350.101Z" fill="white"/>
<path d="M1521.13 325.956L1523.14 358.149L1557.34 354.125L1555.33 321.932L1521.13 325.956Z" fill="white"/>
<path d="M1484.91 297.787L1486.92 331.992L1521.13 325.956L1517.1 289.738L1484.91 297.787Z" fill="white"/>
<path d="M1446.68 273.642L1450.7 307.847L1484.91 297.787L1478.87 265.594L1446.68 273.642Z" fill="white"/>
<path d="M1410.46 251.509L1416.5 285.714L1446.68 273.642L1440.64 245.473L1410.46 251.509Z" fill="white"/>
<path d="M1440.64 245.473L1474.85 235.412L1470.82 198.566L1434.61 209.256L1440.64 245.473Z" fill="white"/>
<path d="M1370.22 231.388L1378.27 261.569L1410.46 251.509L1400.4 221.328L1370.22 231.388Z" fill="white"/>
<path d="M1329.98 213.28L1340.04 245.473L1370.22 231.388L1358.26 199.493L1329.98 213.28Z" fill="white"/>
<path d="M1285.71 195.171L1297.79 227.364L1329.98 213.28L1315.9 181.087L1285.71 195.171Z" fill="white"/>
<path d="M1243.46 185.111L1257.55 213.28L1285.71 195.171L1271.63 167.002L1243.46 185.111Z" fill="white"/>
<path d="M1271.63 167.002L1301.81 150.905L1289.74 120.724L1257.55 136.821L1271.63 167.002Z" fill="white"/>
<path d="M1201.21 173.038L1217.3 201.207L1243.46 185.111L1227.36 156.942L1201.21 173.038Z" fill="white"/>
<path d="M1158.95 160.966L1175.05 189.135L1201.21 173.038L1183.1 142.857L1158.95 160.966Z" fill="white"/>
<path d="M1112.68 154.93L1132.8 183.099L1158.95 160.966L1138.83 136.821L1112.68 154.93Z" fill="white"/>
<path d="M1070.42 150.905L1088.53 175.05L1112.68 154.93L1094.57 130.785L1070.42 150.905Z" fill="white"/>
<path d="M1094.57 130.785L1120.72 106.64L1098.59 80.4829L1072.43 102.616L1094.57 130.785Z" fill="white"/>
<path d="M1024.14 146.881L1046.28 173.038L1070.42 150.905L1048.29 124.748L1024.14 146.881Z" fill="white"/>
<path d="M979.879 146.881L1002.01 173.038L1024.14 146.881L1002.01 124.748L979.879 146.881Z" fill="white"/>
<path d="M957.746 173.038L979.879 146.881L955.734 124.748L935.614 150.905L957.746 173.038Z" fill="white"/>
<path d="M891.348 154.93L915.493 177.062L935.614 150.905L911.469 128.773L891.348 154.93Z" fill="white"/>
<path d="M911.469 128.773L929.577 104.628L903.42 80.4829L885.312 108.652L911.469 128.773Z" fill="white"/>
<path d="M845.07 160.966L871.227 181.087L891.348 154.93L865.191 134.809L845.07 160.966Z" fill="white"/>
<path d="M802.817 173.038L828.974 189.135L845.07 160.966L820.926 142.857L802.817 173.038Z" fill="white"/>
<path d="M760.563 183.099L786.72 199.195L802.817 173.038L772.636 154.93L760.563 183.099Z" fill="white"/>
<path d="M730.382 167.002L746.479 136.821L716.298 120.724L702.904 152.917L730.382 167.002Z" fill="white"/>
<path d="M716.298 197.183L744.467 211.268L760.563 183.099L730.382 167.002L716.298 197.183Z" fill="white"/>
<path d="M676.056 213.28L704.225 227.364L716.298 197.183L688.129 183.099L676.056 213.28Z" fill="white"/>
<path d="M633.803 231.388L663.984 241.449L676.056 213.28L643.863 201.207L633.803 231.388Z" fill="white"/>
<path d="M595.573 251.509L623.742 261.569L633.803 231.388L603.622 221.328L595.573 251.509Z" fill="white"/>
<path d="M557.344 273.642L587.525 281.69L595.573 251.509L563.38 243.461L557.344 273.642Z" fill="white"/>
<path d="M563.38 243.461L569.416 209.256L539.235 199.195L531.187 233.4L563.38 243.461Z" fill="white"/>
<path d="M519.115 297.787L551.308 303.823L557.344 273.642L525.151 265.594L519.115 297.787Z" fill="white"/>
<path d="M482.897 323.944L515.091 329.98L519.115 297.787L486.922 291.75L482.897 323.944Z" fill="white"/>
<path d="M446.68 352.113L478.873 356.137L482.897 323.944L448.692 321.932L446.68 352.113Z" fill="white"/>
<path d="M414.487 382.294L446.68 384.306V352.113L416.499 350.101L414.487 382.294Z" fill="white"/>
<path d="M416.499 350.101V313.883L382.294 311.871L384.306 348.089L416.499 350.101Z" fill="white"/>
<path d="M382.294 414.487H414.487V382.294L382.294 380.282V414.487Z" fill="white"/>
<path d="M352.113 446.68H384.306L382.294 414.487H350.101L352.113 446.68Z" fill="white"/>
<path d="M323.944 480.885H356.137L352.113 446.68L319.919 450.704L323.944 480.885Z" fill="white"/>
<path d="M297.787 517.103L329.98 515.091L323.944 480.885L291.75 484.909L297.787 517.103Z" fill="white"/>
<path d="M291.75 484.909L287.726 452.716L251.509 456.74L259.557 490.946L291.75 484.909Z" fill="white"/>
<path d="M275.654 555.332L305.835 549.296L297.787 517.103L267.606 521.127L275.654 555.332Z" fill="white"/>
<path d="M253.521 593.561L285.714 587.525L275.654 555.332L241.449 563.38L253.521 593.561Z" fill="white"/>
<path d="M233.4 633.803L263.581 625.754L253.521 593.561L221.328 601.61L233.4 633.803Z" fill="white"/>
<path d="M201.207 643.863L187.123 613.682L154.93 625.754L169.014 655.936L201.207 643.863Z" fill="white"/>
<path d="M213.28 674.044L245.473 663.984L233.4 633.803L201.207 643.863L213.28 674.044Z" fill="white"/>
<path d="M183.099 686.117L197.835 716.037L227.364 704.225L213.28 674.044L183.099 686.117Z" fill="white"/>
<path d="M183.099 760.563L213.28 746.479L197.183 716.298L167.002 730.382L183.099 760.563Z" fill="white"/>
<path d="M173.038 802.817L201.207 786.72L183.099 760.563L154.93 774.648L173.038 802.817Z" fill="white"/>
<path d="M142.857 818.913L124.748 790.744L94.5674 808.853L114.688 837.022L142.857 818.913Z" fill="white"/>
<path d="M162.978 847.082L191.147 828.974L173.038 802.817L142.857 818.913L162.978 847.082Z" fill="white"/>
<path d="M148.893 933.602L177.062 915.493L154.93 891.348L128.773 909.457L148.893 933.602Z" fill="white"/>
<path d="M154.93 891.348L181.087 873.239L162.978 847.082L134.809 865.191L154.93 891.348Z" fill="white"/>
<path d="M173.038 957.746L148.893 933.602L124.748 955.734L148.893 979.879L173.038 957.746Z" fill="white"/>
<path d="M124.748 1002.01L100.604 977.867L74.4467 1002.01L100.604 1024.14L124.748 1002.01Z" fill="white"/>
<path d="M148.893 1024.14L173.038 1002.01L148.893 979.879L124.748 1002.01L148.893 1024.14Z" fill="white"/>
<path d="M152.917 1068.41L173.038 1046.28L148.893 1024.14L128.773 1048.29L152.917 1068.41Z" fill="white"/>
<path d="M154.93 1112.68L179.074 1090.54L152.917 1068.41L128.773 1094.57L154.93 1112.68Z" fill="white"/>
<path d="M164.99 1156.94L181.087 1132.8L154.93 1112.68L134.809 1140.85L164.99 1156.94Z" fill="white"/>
<path d="M173.038 1201.21L193.159 1175.05L164.99 1156.94L144.869 1183.1L173.038 1201.21Z" fill="white"/>
<path d="M144.869 1183.1L114.688 1164.99L94.5674 1193.16L122.736 1211.27L144.869 1183.1Z" fill="white"/>
<path d="M185.111 1245.47L203.219 1217.3L173.038 1201.21L154.93 1229.38L185.111 1245.47Z" fill="white"/>
<path d="M197.183 1287.73L215.292 1259.56L185.111 1245.47L167.002 1273.64L197.183 1287.73Z" fill="white"/>
<path d="M213.28 1329.98L227.364 1297.79L197.183 1287.73L185.111 1317.91L213.28 1329.98Z" fill="white"/>
<path d="M231.388 1370.22L245.473 1340.04L213.28 1329.98L199.195 1360.16L231.388 1370.22Z" fill="white"/>
<path d="M199.195 1360.16L171.026 1348.09L156.942 1378.27L189.135 1390.34L199.195 1360.16Z" fill="white"/>
<path d="M251.509 1408.45L263.581 1376.26L231.388 1370.22L221.328 1400.4L251.509 1408.45Z" fill="white"/>
<path d="M273.642 1448.69L285.714 1416.5L251.509 1408.45L241.449 1440.64L273.642 1448.69Z" fill="white"/>
<path d="M299.799 1484.91L307.847 1454.73L273.642 1448.69L267.606 1480.89L299.799 1484.91Z" fill="white"/>
<path d="M325.956 1519.11L331.992 1486.92L299.799 1484.91L291.75 1517.1L325.956 1519.11Z" fill="white"/>
<path d="M291.75 1517.1L261.569 1515.09L255.533 1549.3L287.726 1551.31L291.75 1517.1Z" fill="white"/>
<path d="M354.125 1555.33L360.161 1521.13L325.956 1519.11L321.932 1553.32L354.125 1555.33Z" fill="white"/>
<path d="M384.306 1587.53L388.33 1555.33H354.125L350.101 1587.53H384.306Z" fill="white"/>
<path d="M414.487 1621.73L418.511 1587.53H384.306V1621.73H414.487Z" fill="white"/>
<path d="M448.692 1649.9V1619.72L414.487 1621.73V1651.91L448.692 1649.9Z" fill="white"/>
<path d="M414.487 1651.91H382.294V1686.12H414.487V1651.91Z" fill="white"/>
<path d="M482.897 1680.08L480.885 1649.9H448.692L450.704 1682.09L482.897 1680.08Z" fill="white"/>
<path d="M519.115 1706.24L517.103 1674.04L482.897 1680.08L486.922 1714.29L519.115 1706.24Z" fill="white"/>
<path d="M555.332 1730.38L549.296 1698.19L519.115 1706.24L525.151 1736.42L555.332 1730.38Z" fill="white"/>
<path d="M561.368 1762.58L531.187 1772.64L537.223 1804.83L569.416 1794.77L561.368 1762.58Z" fill="white"/>
<path d="M595.573 1752.51L589.537 1720.32L555.332 1730.38L561.368 1762.58L595.573 1752.51Z" fill="white"/>
<path d="M633.803 1774.65L625.754 1742.45L595.573 1752.51L605.634 1782.7L633.803 1774.65Z" fill="white"/>
<path d="M674.044 1794.77L663.984 1760.56L633.803 1774.65L645.875 1804.83L674.044 1794.77Z" fill="white"/>
<path d="M714.286 1806.84L702.213 1776.66L674.044 1794.77L686.117 1820.93L714.286 1806.84Z" fill="white"/>
<path d="M758.551 1820.93L746.479 1790.74L714.286 1806.84L730.382 1835.01L758.551 1820.93Z" fill="white"/>
<path d="M730.382 1835.01L700.201 1851.11L714.286 1881.29L744.467 1867.2L730.382 1835.01Z" fill="white"/>
<path d="M802.817 1833L788.732 1804.83L758.551 1820.93L772.636 1849.09L802.817 1833Z" fill="white"/>
<path d="M802.817 1833L818.913 1861.17L847.082 1843.06L828.974 1814.89L802.817 1833Z" fill="white"/>
<path d="M891.348 1849.09L873.239 1822.94L847.082 1843.06L865.191 1869.22L891.348 1849.09Z" fill="white"/>
<path d="M909.457 1873.24L883.3 1895.37L905.433 1923.54L931.589 1901.41L909.457 1873.24Z" fill="white"/>
<path d="M935.614 1853.12L915.493 1828.97L891.348 1849.09L909.457 1873.24L935.614 1853.12Z" fill="white"/>
<path d="M979.879 1855.13L957.746 1830.99L935.614 1853.12L957.746 1877.26L979.879 1855.13Z" fill="white"/>
<path d="M1024.14 1855.13L1002.01 1833L979.879 1855.13L1002.01 1879.28L1024.14 1855.13Z" fill="white"/>
<path d="M1068.41 1853.12L1044.27 1830.99L1024.14 1855.13L1048.29 1877.26L1068.41 1853.12Z" fill="white"/>
<path d="M1114.69 1849.09L1090.54 1826.96L1068.41 1853.12L1094.57 1875.25L1114.69 1849.09Z" fill="white"/>
<path d="M1156.94 1841.05L1132.8 1820.93L1114.69 1849.09L1140.85 1869.22L1156.94 1841.05Z" fill="white"/>
<path d="M1201.21 1830.99L1175.05 1812.88L1156.94 1841.05L1185.11 1861.17L1201.21 1830.99Z" fill="white"/>
<path d="M1094.57 1875.25L1074.45 1899.4L1098.59 1921.53L1118.71 1897.38L1094.57 1875.25Z" fill="white"/>
<path d="M1245.47 1816.9L1217.3 1800.8L1201.21 1830.99L1231.39 1849.09L1245.47 1816.9Z" fill="white"/>
<path d="M1287.73 1806.84L1257.55 1788.73L1245.47 1816.9L1271.63 1835.01L1287.73 1806.84Z" fill="white"/>
<path d="M1329.98 1790.74L1297.79 1776.66L1287.73 1806.84L1315.9 1820.93L1329.98 1790.74Z" fill="white"/>
<path d="M1271.63 1835.01L1257.55 1863.18L1287.73 1881.29L1301.81 1851.11L1271.63 1835.01Z" fill="white"/>
<path d="M1370.22 1774.65L1340.04 1758.55L1329.98 1790.74L1360.16 1804.83L1370.22 1774.65Z" fill="white"/>
<path d="M1408.45 1752.51L1378.27 1740.44L1370.22 1774.65L1400.4 1784.71L1408.45 1752.51Z" fill="white"/>
</svg>
