<svg width="824" height="824" viewBox="0 0 824 824" fill="none" xmlns="http://www.w3.org/2000/svg">
<path d="M536.346 794.157L550.439 800.789L556.241 788.354L570.334 792.499L575.308 778.406L562.873 774.262L567.847 761.827L580.282 766.801L575.308 778.406L591.058 783.38L595.203 770.946L609.296 774.262L612.612 759.34L560.386 743.59L536.346 794.157Z" fill="white"/>
<path d="M455.107 812.394L465.883 820.684L475.831 810.736L486.608 817.368L496.555 804.934L484.95 797.473L493.239 786.696L504.016 794.157L496.555 804.934L508.161 812.394L517.28 801.618L528.885 807.421L536.346 794.157L488.266 766.801L455.107 812.394Z" fill="white"/>
<path d="M370.551 812.394L379.67 823.171L391.276 814.052L401.223 824L412.829 814.052L402.052 804.105L412.829 793.328L423.606 804.105L412.829 814.052L423.606 824L434.382 814.881L445.159 823.171L455.107 812.394L412.829 774.262L370.551 812.394Z" fill="white"/>
<path d="M288.483 793.328L295.115 806.592L308.378 801.618L315.839 812.394L329.932 804.934L321.642 793.328L333.247 785.867L341.537 797.473L329.932 804.934L338.221 817.368L349.827 809.907L359.775 820.684L370.551 812.394L337.392 766.801L288.483 793.328Z" fill="white"/>
<path d="M212.217 759.34L216.362 774.262L230.455 770.946L235.429 784.209L250.35 779.235L245.376 766.801L257.811 762.656L261.956 775.091L250.35 779.235L255.324 793.328L269.416 788.354L274.39 800.789L288.483 793.328L266.101 743.59L212.217 759.34Z" fill="white"/>
<path d="M145.899 709.602V725.352H160.821L161.65 738.616L177.4 736.958L175.742 723.694L189.006 722.865L190.664 736.129L177.4 736.958L179.058 751.05L194.809 750.221L198.125 763.485L212.217 759.34L200.612 706.286L145.899 709.602Z" fill="white"/>
<path d="M88.7002 649.087L87.0423 664.837L101.135 665.666L100.306 681.416L115.227 680.588V667.324H129.32V680.588H115.227L114.398 696.338H129.32V711.26L145.899 709.602L144.241 654.06L88.7002 649.087Z" fill="white"/>
<path d="M47.2515 575.308L40.6197 591.058L54.7123 595.203L51.3964 610.125L66.3179 613.441L69.6338 601.006L81.2394 604.322L78.7525 615.928L66.3179 613.441L62.173 629.191L76.2656 631.678L73.7787 647.429L88.7002 649.087L99.4769 593.545L47.2515 575.308Z" fill="white"/>
<path d="M20.7243 495.726L11.6056 508.161L24.0402 515.622L17.4085 529.714L31.501 536.346L37.3038 524.74L48.9095 530.543L43.9356 542.149L31.501 536.346L24.0402 549.61L38.1328 555.412L31.501 570.334L47.2515 575.308L68.8048 524.74L20.7243 495.726Z" fill="white"/>
<path d="M11.6056 412.829L0 423.606L11.6056 434.382L1.65795 444.33L14.9215 455.107L24.0402 445.159L33.159 453.449L24.8692 463.396L14.9215 455.107L3.3159 465.883L16.5795 475.831L6.63179 486.608L20.7243 495.726L53.0543 450.962L11.6056 412.829Z" fill="white"/>
<path d="M20.7243 329.103L6.63179 336.563L16.5795 349.827L3.3159 358.117L13.2636 370.551L24.8692 362.262L33.159 373.038L22.3823 382.157L13.2636 370.551L1.65795 379.67L12.4346 392.105L0 402.052L11.6056 412.829L53.0543 374.696L20.7243 329.103Z" fill="white"/>
<path d="M47.2515 248.692L31.501 255.324L38.1328 269.416L24.0402 274.39L30.672 288.483L43.9356 282.68L49.7384 294.286L38.1328 300.918L30.672 288.483L16.5795 296.773L24.8692 308.378L11.6056 316.668L20.7243 329.103L68.8048 300.918L47.2515 248.692Z" fill="white"/>
<path d="M87.8712 177.4L72.9497 179.058L75.4366 194.809L60.5151 198.125L63.831 213.046L77.9235 209.73L81.2394 222.994L67.9759 227.139L63.831 213.046L49.7384 215.533L53.8833 230.455L40.6197 234.6L47.2515 248.692L99.4769 232.113L87.8712 177.4Z" fill="white"/>
<path d="M145.07 115.227L129.32 113.569L128.491 128.491H113.569L114.398 145.07H129.32V159.992H115.227L114.398 145.07H99.4769L100.306 160.821L85.3843 161.65L87.8712 177.4L144.241 170.769L145.07 115.227Z" fill="white"/>
<path d="M212.217 65.4889L196.467 61.3441L193.98 74.6076L179.058 72.9497L177.4 88.7002L190.664 89.5292L189.835 102.793L176.571 101.964L177.4 88.7002L160.821 87.8712V101.135H145.07V115.227L200.612 120.201L212.217 65.4889Z" fill="white"/>
<path d="M290.141 31.501L275.219 23.2113L268.588 37.3038L254.495 31.501L249.521 45.5936L261.956 50.5674L256.982 63.002L244.547 58.0282L249.521 45.5936L234.6 40.6197L231.284 54.7123L215.533 50.5674L212.217 65.4889L265.272 82.8974L290.141 31.501Z" fill="white"/>
<path d="M371.38 13.2636L359.775 3.3159L349.827 14.9215L338.221 6.63179L329.103 19.8954L341.537 28.1851L333.247 39.7907L321.642 32.33L329.103 19.8954L316.668 11.6056L310.036 23.2113L296.773 16.5795L290.141 31.501L338.221 58.8571L371.38 13.2636Z" fill="white"/>
<path d="M412.829 10.7767L402.052 0L392.105 10.7767L380.499 1.65795L371.38 13.2636L412.829 51.3964L455.107 13.2636L444.33 1.65795L434.382 9.94769L423.606 0L412.829 10.7767L423.606 20.7243L412.829 31.501L402.052 21.5533L412.829 10.7767Z" fill="white"/>
<path d="M537.175 30.672L530.543 17.4085L516.451 24.8692L508.99 11.6056L496.555 20.7243L504.016 32.33L492.41 39.7907L484.95 28.1851L496.555 20.7243L487.437 6.63179L475.831 16.5795L466.712 3.3159L455.107 13.2636L487.437 58.8571L537.175 30.672Z" fill="white"/>
<path d="M612.612 65.4889L610.125 50.5674L595.203 53.8833L590.229 40.6197L576.137 45.5936L581.94 59.6861L568.676 64.66L562.873 51.3964L576.137 45.5936L570.334 31.501L557.07 37.3038L552.097 24.8692L537.175 30.672L559.557 82.0684L560.386 81.8094L612.612 65.4889Z" fill="white"/>
<path d="M681.416 115.227V100.306L665.666 101.135L664.837 87.0423L649.087 88.7002L651.573 101.964L637.481 103.622L635.823 90.3581L649.087 88.7002L646.6 73.7787L631.678 76.2656L629.191 62.173L612.612 65.4889L625.046 119.372L681.416 115.227Z" fill="white"/>
<path d="M736.958 177.4L739.445 162.479L725.352 160.821V145.899L711.26 144.241V158.334H696.338V144.241H711.26V130.149H697.167L696.338 114.398L681.416 115.227V170.769L736.958 177.4Z" fill="white"/>
<path d="M779.235 249.521L784.209 235.429L770.117 230.455L774.262 216.362L760.169 212.217L756.024 225.481L743.59 221.336L747.734 208.072L760.169 212.217L764.314 198.125L750.221 194.809L751.879 179.887L736.958 177.4L726.181 232.942L779.235 249.521Z" fill="white"/>
<path d="M804.934 329.932L813.223 317.497L799.96 308.378L807.421 295.944L794.157 289.312L787.525 301.746L775.091 295.115L781.722 282.68L794.157 289.312L800.789 275.219L787.525 269.416L792.499 255.324L779.235 249.521L756.853 300.918L804.934 329.932Z" fill="white"/>
<path d="M813.223 412.829L824 402.052L813.223 392.105L822.342 381.328L811.565 371.38L803.276 381.328L792.499 373.038L800.789 363.091L811.565 371.38L820.684 358.946L809.078 349.827L816.539 338.221L804.934 329.932L773.433 374.696L813.223 412.829Z" fill="white"/>
<path d="M804.105 497.384L817.368 487.437L809.078 475.002L819.855 465.883L811.565 455.107L800.789 463.396L791.67 453.449L802.447 444.33L811.565 455.107L822.342 445.159L813.223 433.553L824 422.777L813.223 412.829L773.433 450.962L804.105 497.384Z" fill="white"/>
<path d="M777.577 576.137L791.67 571.163L786.696 556.241L799.96 550.439L793.328 536.346L780.893 542.978L775.091 530.543L787.525 523.911L793.328 536.346L806.592 530.543L799.96 516.451L811.565 508.99L804.105 497.384L756.853 523.911L777.577 576.137Z" fill="white"/>
<path d="M736.129 648.258L751.879 645.771L749.392 630.849L762.656 628.362L759.34 613.441L746.076 615.928L743.59 603.493L756.853 601.006L759.34 613.441L774.262 609.296L770.946 595.203L783.38 591.058L777.577 576.137L727.01 592.716L736.129 648.258Z" fill="white"/>
<path d="M679.759 709.602L696.338 710.431V696.338H711.26V681.416H696.338V666.495H711.26V681.416L725.352 679.759V664.837L738.616 663.179L736.129 648.258L681.416 654.889L679.759 709.602Z" fill="white"/>
<path d="M612.612 759.34L627.533 763.485L631.678 749.392L646.6 751.05L648.258 736.958L634.994 735.3L636.652 721.207L649.915 722.865L648.258 736.958L664.008 738.616L664.837 724.523L679.759 725.352V709.602L625.875 707.115L612.612 759.34Z" fill="white"/>
<path d="M593.545 726.181L590.229 739.445L602.664 742.761L605.98 730.326L593.545 726.181Z" fill="white"/>
<path d="M596.861 712.917L583.598 708.773L580.282 722.036L593.545 726.181L596.861 712.917Z" fill="white"/>
<path d="M611.783 702.97L598.519 699.654L596.861 712.917L608.467 716.233L611.783 702.97Z" fill="white"/>
<path d="M627.533 692.193L613.441 689.706L611.783 702.97L625.875 707.115L627.533 692.193Z" fill="white"/>
<path d="M641.626 680.588L628.362 678.93L627.533 692.193L640.797 693.851L641.626 680.588Z" fill="white"/>
<path d="M654.889 668.153L642.455 666.495L641.626 680.588L654.889 681.416V668.153Z" fill="white"/>
<path d="M654.889 681.416V694.68H668.153V682.245L654.889 681.416Z" fill="white"/>
<path d="M667.324 654.889H654.889V668.153H668.153L667.324 654.889Z" fill="white"/>
<path d="M681.416 640.797H667.324V654.889H681.416V640.797Z" fill="white"/>
<path d="M692.193 626.704L678.93 627.533L681.416 640.797L693.851 639.968L692.193 626.704Z" fill="white"/>
<path d="M705.457 625.875L707.115 639.139L720.378 638.31L718.72 625.046L705.457 625.875Z" fill="white"/>
<path d="M703.799 612.612L690.535 613.441L692.193 626.704L705.457 625.875L703.799 612.612Z" fill="white"/>
<path d="M712.917 596.861L699.654 599.348L703.799 612.612L716.233 610.125L712.917 596.861Z" fill="white"/>
<path d="M722.036 580.282L708.773 583.598L712.917 596.861L727.01 592.716L722.036 580.282Z" fill="white"/>
<path d="M730.326 564.531L717.891 568.676L722.036 580.282L735.3 576.137L730.326 564.531Z" fill="white"/>
<path d="M736.958 547.123L725.352 552.097L730.326 564.531L742.761 560.386L736.958 547.123Z" fill="white"/>
<path d="M742.761 560.386L748.563 571.992L761.827 567.847L756.024 555.412L742.761 560.386Z" fill="white"/>
<path d="M744.418 529.714L731.984 535.517L736.958 547.123L750.221 541.32L744.418 529.714Z" fill="white"/>
<path d="M751.05 512.306L738.616 518.938L744.418 529.714L756.853 523.911L751.05 512.306Z" fill="white"/>
<path d="M755.195 494.897L743.59 500.7L751.05 512.306L761.827 507.332L755.195 494.897Z" fill="white"/>
<path d="M759.34 476.66L747.734 484.121L755.195 494.897L766.801 488.266L759.34 476.66Z" fill="white"/>
<path d="M766.801 488.266L774.262 499.042L785.867 492.41L778.406 481.634L766.801 488.266Z" fill="white"/>
<path d="M761.827 458.423L750.221 465.883L759.34 476.66L769.288 470.028L761.827 458.423Z" fill="white"/>
<path d="M763.485 440.185L751.879 448.475L761.827 458.423L773.433 450.962L763.485 440.185Z" fill="white"/>
<path d="M764.314 421.948L753.537 431.066L763.485 440.185L773.433 431.895L764.314 421.948Z" fill="white"/>
<path d="M764.314 403.71L753.537 412.829L764.314 421.948L774.262 412.829L764.314 403.71Z" fill="white"/>
<path d="M774.262 412.829L785.038 421.948L794.157 412.829L784.209 403.71L774.262 412.829Z" fill="white"/>
<path d="M763.485 384.644L753.537 394.592L764.314 403.71L773.433 393.763L763.485 384.644Z" fill="white"/>
<path d="M761.827 366.406L751.879 377.183L763.485 384.644L773.433 374.696L761.827 366.406Z" fill="white"/>
<path d="M758.511 348.169L749.392 359.775L761.827 366.406L770.117 355.63L758.511 348.169Z" fill="white"/>
<path d="M755.195 329.932L746.905 341.537L758.511 348.169L765.972 338.221L755.195 329.932Z" fill="white"/>
<path d="M765.972 338.221L778.406 344.853L785.867 334.076L774.262 326.616L765.972 338.221Z" fill="white"/>
<path d="M750.221 312.523L742.761 324.129L755.195 329.932L761.827 319.155L750.221 312.523Z" fill="white"/>
<path d="M745.247 295.115L737.787 307.549L750.221 312.523L756.853 300.918L745.247 295.115Z" fill="white"/>
<path d="M737.787 278.535L732.813 290.97L745.247 295.115L751.05 282.68L737.787 278.535Z" fill="white"/>
<path d="M731.984 261.127L724.523 274.39L737.787 278.535L743.59 265.272L731.984 261.127Z" fill="white"/>
<path d="M743.59 265.272L756.024 269.416L760.998 256.982L747.734 253.666L743.59 265.272Z" fill="white"/>
<path d="M722.036 245.376L717.891 257.811L731.984 261.127L735.3 249.521L722.036 245.376Z" fill="white"/>
<path d="M712.917 228.797L708.773 242.889L722.036 245.376L726.181 232.942L712.917 228.797Z" fill="white"/>
<path d="M702.97 213.875L699.654 227.139L712.917 228.797L716.233 216.362L702.97 213.875Z" fill="white"/>
<path d="M692.193 198.954L689.706 213.046L702.97 213.875L705.457 199.783L692.193 198.954Z" fill="white"/>
<path d="M705.457 199.783L718.72 198.954V186.519L706.286 187.348L705.457 199.783Z" fill="white"/>
<path d="M681.416 184.032L678.93 198.954H692.193L693.022 185.69L681.416 184.032Z" fill="white"/>
<path d="M668.153 170.769L667.324 184.032H681.416V170.769H668.153Z" fill="white"/>
<path d="M654.889 157.505L654.06 171.598L668.153 170.769V157.505H654.889Z" fill="white"/>
<path d="M641.626 145.899V159.163L654.889 157.505V144.241L641.626 145.899Z" fill="white"/>
<path d="M654.889 144.241L667.324 143.412L668.982 130.149L655.718 130.978L654.889 144.241Z" fill="white"/>
<path d="M626.704 134.294L627.533 147.557L641.626 145.899L640.797 132.636L626.704 134.294Z" fill="white"/>
<path d="M611.783 122.688L612.612 136.781L626.704 134.294L625.046 119.372L611.783 122.688Z" fill="white"/>
<path d="M596.032 112.74L597.69 126.833L611.783 122.688L609.296 109.425L596.032 112.74Z" fill="white"/>
<path d="M581.111 103.622L583.598 117.714L596.032 112.74L593.545 101.135L581.111 103.622Z" fill="white"/>
<path d="M593.545 101.135L607.638 96.9899L605.98 81.8094L591.058 86.2133L593.545 101.135Z" fill="white"/>
<path d="M564.531 95.332L567.847 107.767L581.111 103.622L576.966 91.1871L564.531 95.332Z" fill="white"/>
<path d="M547.952 87.8712L552.097 101.135L564.531 95.332L559.603 82.1911L547.952 87.8712Z" fill="white"/>
<path d="M529.714 80.4105L534.688 93.674L547.952 87.8712L542.149 74.6076L529.714 80.4105Z" fill="white"/>
<path d="M512.306 76.2656L518.109 87.8712L529.714 80.4105L523.911 68.8048L512.306 76.2656Z" fill="white"/>
<path d="M523.911 68.8048L536.346 62.173L531.372 49.7384L518.109 56.3702L523.911 68.8048Z" fill="white"/>
<path d="M494.897 71.2917L501.529 82.8974L512.306 76.2656L505.674 64.66L494.897 71.2917Z" fill="white"/>
<path d="M477.489 66.3179L484.121 77.9235L494.897 71.2917L487.437 58.8571L477.489 66.3179Z" fill="white"/>
<path d="M458.423 63.831L466.712 75.4366L477.489 66.3179L469.199 56.3702L458.423 63.831Z" fill="white"/>
<path d="M441.014 62.173L448.475 72.1207L458.423 63.831L450.962 53.8833L441.014 62.173Z" fill="white"/>
<path d="M450.962 53.8833L461.738 43.9356L452.62 33.159L441.843 42.2777L450.962 53.8833Z" fill="white"/>
<path d="M421.948 60.5151L431.066 71.2917L441.014 62.173L431.895 51.3964L421.948 60.5151Z" fill="white"/>
<path d="M403.71 60.5151L412.829 71.2917L421.948 60.5151L412.829 51.3964L403.71 60.5151Z" fill="white"/>
<path d="M394.592 71.2917L403.71 60.5151L393.763 51.3964L385.473 62.173L394.592 71.2917Z" fill="white"/>
<path d="M367.235 63.831L377.183 72.9497L385.473 62.173L375.525 53.0543L367.235 63.831Z" fill="white"/>
<path d="M375.525 53.0543L382.986 43.1066L372.209 33.159L364.748 44.7646L375.525 53.0543Z" fill="white"/>
<path d="M348.169 66.3179L358.946 74.6076L367.235 63.831L356.459 55.5412L348.169 66.3179Z" fill="white"/>
<path d="M330.761 71.2917L341.537 77.9235L348.169 66.3179L338.221 58.8571L330.761 71.2917Z" fill="white"/>
<path d="M313.352 75.4366L324.129 82.0684L330.761 71.2917L318.326 63.831L313.352 75.4366Z" fill="white"/>
<path d="M300.918 68.8048L307.549 56.3702L295.115 49.7384L289.597 63.002L300.918 68.8048Z" fill="white"/>
<path d="M295.115 81.2394L306.72 87.0423L313.352 75.4366L300.918 68.8048L295.115 81.2394Z" fill="white"/>
<path d="M278.535 87.8712L290.141 93.674L295.115 81.2394L283.509 75.4366L278.535 87.8712Z" fill="white"/>
<path d="M261.127 95.332L273.561 99.4769L278.535 87.8712L265.272 82.8974L261.127 95.332Z" fill="white"/>
<path d="M245.376 103.622L256.982 107.767L261.127 95.332L248.692 91.1871L245.376 103.622Z" fill="white"/>
<path d="M229.626 112.74L242.06 116.056L245.376 103.622L232.113 100.306L229.626 112.74Z" fill="white"/>
<path d="M232.113 100.306L234.6 86.2133L222.165 82.0684L218.849 96.161L232.113 100.306Z" fill="white"/>
<path d="M213.875 122.688L227.139 125.175L229.626 112.74L216.362 109.425L213.875 122.688Z" fill="white"/>
<path d="M198.954 133.465L212.217 135.952L213.875 122.688L200.612 120.201L198.954 133.465Z" fill="white"/>
<path d="M184.032 145.07L197.296 146.728L198.954 133.465L184.861 132.636L184.032 145.07Z" fill="white"/>
<path d="M170.769 157.505L184.032 158.334V145.07L171.598 144.241L170.769 157.505Z" fill="white"/>
<path d="M171.598 144.241V129.32L157.505 128.491L158.334 143.412L171.598 144.241Z" fill="white"/>
<path d="M157.505 170.769H170.769V157.505L157.505 156.676V170.769Z" fill="white"/>
<path d="M145.07 184.032H158.334L157.505 170.769H144.241L145.07 184.032Z" fill="white"/>
<path d="M133.465 198.125H146.728L145.07 184.032L131.807 185.69L133.465 198.125Z" fill="white"/>
<path d="M122.688 213.046L135.952 212.217L133.465 198.125L120.201 199.783L122.688 213.046Z" fill="white"/>
<path d="M120.201 199.783L118.543 186.519L103.622 188.177L106.938 202.27L120.201 199.783Z" fill="white"/>
<path d="M113.569 228.797L126.004 226.31L122.688 213.046L110.254 214.704L113.569 228.797Z" fill="white"/>
<path d="M104.451 244.547L117.714 242.06L113.569 228.797L99.4769 232.113L104.451 244.547Z" fill="white"/>
<path d="M96.161 261.127L108.596 257.811L104.451 244.547L91.1871 247.863L96.161 261.127Z" fill="white"/>
<path d="M82.8974 265.272L77.0946 252.837L63.831 257.811L69.6338 270.245L82.8974 265.272Z" fill="white"/>
<path d="M87.8712 277.706L101.135 273.561L96.161 261.127L82.8974 265.272L87.8712 277.706Z" fill="white"/>
<path d="M75.4366 282.68L81.508 295.007L93.674 290.141L87.8712 277.706L75.4366 282.68Z" fill="white"/>
<path d="M75.4366 313.352L87.8712 307.549L81.2394 295.115L68.8048 300.918L75.4366 313.352Z" fill="white"/>
<path d="M71.2917 330.761L82.8974 324.129L75.4366 313.352L63.831 319.155L71.2917 330.761Z" fill="white"/>
<path d="M58.8571 337.392L51.3964 325.787L38.9618 333.247L47.2515 344.853L58.8571 337.392Z" fill="white"/>
<path d="M67.1469 348.998L78.7525 341.537L71.2917 330.761L58.8571 337.392L67.1469 348.998Z" fill="white"/>
<path d="M61.3441 384.644L72.9497 377.183L63.831 367.235L53.0543 374.696L61.3441 384.644Z" fill="white"/>
<path d="M63.831 367.235L74.6076 359.775L67.1469 348.998L55.5412 356.459L63.831 367.235Z" fill="white"/>
<path d="M71.2917 394.592L61.3441 384.644L51.3964 393.763L61.3441 403.71L71.2917 394.592Z" fill="white"/>
<path d="M51.3964 412.829L41.4487 402.881L30.672 412.829L41.4487 421.948L51.3964 412.829Z" fill="white"/>
<path d="M61.3441 421.948L71.2917 412.829L61.3441 403.71L51.3964 412.829L61.3441 421.948Z" fill="white"/>
<path d="M63.002 440.185L71.2917 431.066L61.3441 421.948L53.0543 431.895L63.002 440.185Z" fill="white"/>
<path d="M63.831 458.423L73.7787 449.304L63.002 440.185L53.0543 450.962L63.831 458.423Z" fill="white"/>
<path d="M67.9759 476.66L74.6076 466.712L63.831 458.423L55.5412 470.028L67.9759 476.66Z" fill="white"/>
<path d="M71.2917 494.897L79.5815 484.121L67.9759 476.66L59.6861 487.437L71.2917 494.897Z" fill="white"/>
<path d="M59.6861 487.437L47.2515 479.976L38.9618 491.581L50.5674 499.042L59.6861 487.437Z" fill="white"/>
<path d="M76.2656 513.135L83.7264 501.529L71.2917 494.897L63.831 506.503L76.2656 513.135Z" fill="white"/>
<path d="M81.2394 530.543L88.7002 518.938L76.2656 513.135L68.8048 524.74L81.2394 530.543Z" fill="white"/>
<path d="M87.8712 547.952L93.674 534.688L81.2394 530.543L76.2656 542.978L87.8712 547.952Z" fill="white"/>
<path d="M95.332 564.531L101.135 552.097L87.8712 547.952L82.0684 560.386L95.332 564.531Z" fill="white"/>
<path d="M82.0684 560.386L70.4628 555.412L64.66 567.847L77.9235 572.821L82.0684 560.386Z" fill="white"/>
<path d="M103.622 580.282L108.596 567.018L95.332 564.531L91.1871 576.966L103.622 580.282Z" fill="white"/>
<path d="M112.74 596.861L117.714 583.598L103.622 580.282L99.4769 593.545L112.74 596.861Z" fill="white"/>
<path d="M123.517 611.783L126.833 599.348L112.74 596.861L110.254 610.125L123.517 611.783Z" fill="white"/>
<path d="M134.294 625.875L136.781 612.612L123.517 611.783L120.201 625.046L134.294 625.875Z" fill="white"/>
<path d="M120.201 625.046L107.767 624.217L105.28 638.31L118.543 639.139L120.201 625.046Z" fill="white"/>
<path d="M145.899 640.797L148.386 626.704L134.294 625.875L132.636 639.968L145.899 640.797Z" fill="white"/>
<path d="M158.334 654.06L159.992 640.797H145.899L144.241 654.06H158.334Z" fill="white"/>
<path d="M170.769 668.153L172.427 654.06H158.334V668.153H170.769Z" fill="white"/>
<path d="M184.861 679.759V667.324L170.769 668.153V680.588L184.861 679.759Z" fill="white"/>
<path d="M170.769 680.588H157.505V694.68H170.769V680.588Z" fill="white"/>
<path d="M198.954 692.193L198.125 679.759H184.861L185.69 693.022L198.954 692.193Z" fill="white"/>
<path d="M213.875 702.97L213.046 689.706L198.954 692.193L200.612 706.286L213.875 702.97Z" fill="white"/>
<path d="M228.797 712.917L226.31 699.654L213.875 702.97L216.362 715.404L228.797 712.917Z" fill="white"/>
<path d="M231.284 726.181L218.849 730.326L221.336 743.59L234.6 739.445L231.284 726.181Z" fill="white"/>
<path d="M245.376 722.036L242.889 708.773L228.797 712.917L231.284 726.181L245.376 722.036Z" fill="white"/>
<path d="M261.127 731.155L257.811 717.891L245.376 722.036L249.521 734.471L261.127 731.155Z" fill="white"/>
<path d="M277.706 739.445L273.561 725.352L261.127 731.155L266.101 743.59L277.706 739.445Z" fill="white"/>
<path d="M294.286 744.418L289.312 731.984L277.706 739.445L282.68 750.221L294.286 744.418Z" fill="white"/>
<path d="M312.523 750.221L307.549 737.787L294.286 744.418L300.918 756.024L312.523 750.221Z" fill="white"/>
<path d="M300.918 756.024L288.483 762.656L294.286 775.091L306.72 769.288L300.918 756.024Z" fill="white"/>
<path d="M330.761 755.195L324.958 743.59L312.523 750.221L318.326 761.827L330.761 755.195Z" fill="white"/>
<path d="M330.761 755.195L337.392 766.801L348.998 759.34L341.537 747.734L330.761 755.195Z" fill="white"/>
<path d="M367.235 761.827L359.775 751.05L348.998 759.34L356.459 770.117L367.235 761.827Z" fill="white"/>
<path d="M374.696 771.775L363.92 780.893L373.038 792.499L383.815 783.38L374.696 771.775Z" fill="white"/>
<path d="M385.473 763.485L377.183 753.537L367.235 761.827L374.696 771.775L385.473 763.485Z" fill="white"/>
<path d="M403.71 764.314L394.592 754.366L385.473 763.485L394.592 773.433L403.71 764.314Z" fill="white"/>
<path d="M421.948 764.314L412.829 755.195L403.71 764.314L412.829 774.262L421.948 764.314Z" fill="white"/>
<path d="M440.185 763.485L430.237 754.366L421.948 764.314L431.895 773.433L440.185 763.485Z" fill="white"/>
<path d="M459.252 761.827L449.304 752.708L440.185 763.485L450.962 772.604L459.252 761.827Z" fill="white"/>
<path d="M476.66 758.511L466.712 750.221L459.252 761.827L470.028 770.117L476.66 758.511Z" fill="white"/>
<path d="M494.897 754.366L484.121 746.905L476.66 758.511L488.266 766.801L494.897 754.366Z" fill="white"/>
<path d="M450.962 772.604L442.672 782.551L452.62 791.67L460.909 781.722L450.962 772.604Z" fill="white"/>
<path d="M513.135 748.563L501.529 741.932L494.897 754.366L507.332 761.827L513.135 748.563Z" fill="white"/>
<path d="M530.543 744.418L518.109 736.958L513.135 748.563L523.911 756.024L530.543 744.418Z" fill="white"/>
<path d="M547.952 737.787L534.688 731.984L530.543 744.418L542.149 750.221L547.952 737.787Z" fill="white"/>
<path d="M523.911 756.024L518.109 767.63L530.543 775.091L536.346 762.656L523.911 756.024Z" fill="white"/>
<path d="M564.531 731.155L552.097 724.523L547.952 737.787L560.386 743.59L564.531 731.155Z" fill="white"/>
<path d="M580.282 722.036L567.847 717.062L564.531 731.155L576.966 735.3L580.282 722.036Z" fill="white"/>
</svg>
