<svg width="20" height="20" viewBox="0 0 20 20" fill="none" xmlns="http://www.w3.org/2000/svg">
<path fill-rule="evenodd" clip-rule="evenodd" d="M15 0C15.4602 0 15.8333 0.360991 15.8333 0.806287V3.068H16.6667C18.0473 3.068 19.1667 4.15096 19.1667 5.48686V14.6416C19.6853 15.2102 20 15.957 20 16.7749C20 18.5561 18.5077 20 16.6667 20C14.8257 20 13.3333 18.5561 13.3333 16.7749C13.3333 16.7208 13.3347 16.667 13.3375 16.6136H6.66257C6.6653 16.667 6.66667 16.7208 6.66667 16.7749C6.66667 18.5561 5.17428 20 3.33333 20C1.49238 20 0 18.5561 0 16.7749C0 15.957 0.3147 15.2102 0.833333 14.6416V5.48686C0.833333 4.15097 1.95262 3.068 3.33333 3.068H14.1667V0.806287C14.1667 0.360991 14.5398 0 15 0ZM2.5 13.6513C2.76635 13.585 3.04558 13.5497 3.33333 13.5497C4.49703 13.5497 5.52145 14.1267 6.11768 15.001H13.8823C14.4785 14.1267 15.503 13.5497 16.6667 13.5497C16.9543 13.5497 17.2337 13.585 17.5 13.6513V5.48686C17.5 5.04157 17.1268 4.68058 16.6667 4.68058H3.33333C2.8731 4.68058 2.5 5.04157 2.5 5.48686V13.6513ZM15 16.7749C15 15.8842 15.7462 15.1623 16.6667 15.1623C17.5872 15.1623 18.3333 15.8842 18.3333 16.7749C18.3333 17.6655 17.5872 18.3874 16.6667 18.3874C15.7462 18.3874 15 17.6655 15 16.7749ZM1.66667 16.7749C1.66667 15.8842 2.41287 15.1623 3.33333 15.1623C4.2538 15.1623 5 15.8842 5 16.7749C5 17.6655 4.2538 18.3874 3.33333 18.3874C2.41287 18.3874 1.66667 17.6655 1.66667 16.7749Z" fill="white"/>
</svg>
