<svg width="28" height="28" viewBox="0 0 28 28" fill="none" xmlns="http://www.w3.org/2000/svg">
<path d="M18.6667 26.5413H9.33333C5.075 26.5413 2.625 24.0913 2.625 19.833V8.16634C2.625 3.90801 5.075 1.45801 9.33333 1.45801H18.6667C22.925 1.45801 25.375 3.90801 25.375 8.16634V19.833C25.375 24.0913 22.925 26.5413 18.6667 26.5413ZM9.33333 3.20801C5.99667 3.20801 4.375 4.82967 4.375 8.16634V19.833C4.375 23.1697 5.99667 24.7913 9.33333 24.7913H18.6667C22.0033 24.7913 23.625 23.1697 23.625 19.833V8.16634C23.625 4.82967 22.0033 3.20801 18.6667 3.20801H9.33333Z" fill="#007CC5"/>
<path d="M21.5832 10.7917H19.2498C17.4765 10.7917 16.0415 9.35667 16.0415 7.58333V5.25C16.0415 4.77167 16.4382 4.375 16.9165 4.375C17.3948 4.375 17.7915 4.77167 17.7915 5.25V7.58333C17.7915 8.38833 18.4448 9.04167 19.2498 9.04167H21.5832C22.0615 9.04167 22.4582 9.43833 22.4582 9.91667C22.4582 10.395 22.0615 10.7917 21.5832 10.7917Z" fill="#007CC5"/>
<path d="M14.0002 16.042H9.3335C8.85516 16.042 8.4585 15.6453 8.4585 15.167C8.4585 14.6887 8.85516 14.292 9.3335 14.292H14.0002C14.4785 14.292 14.8752 14.6887 14.8752 15.167C14.8752 15.6453 14.4785 16.042 14.0002 16.042Z" fill="#007CC5"/>
<path d="M18.6668 20.708H9.3335C8.85516 20.708 8.4585 20.3113 8.4585 19.833C8.4585 19.3547 8.85516 18.958 9.3335 18.958H18.6668C19.1452 18.958 19.5418 19.3547 19.5418 19.833C19.5418 20.3113 19.1452 20.708 18.6668 20.708Z" fill="#007CC5"/>
</svg>
