<svg width="24" height="24" viewBox="0 0 24 24" fill="none" xmlns="http://www.w3.org/2000/svg">
<path fill-rule="evenodd" clip-rule="evenodd" d="M18.48 10.5583C18.2389 10.3175 17.9121 10.1823 17.5714 10.1823C17.2307 10.1823 16.9039 10.3175 16.6629 10.5583L13.2857 13.9354V1.28571C13.2857 0.944722 13.1503 0.617695 12.9091 0.376577C12.668 0.135459 12.341 0 12 0C11.659 0 11.332 0.135459 11.0909 0.376577C10.8497 0.617695 10.7143 0.944722 10.7143 1.28571V13.9354L7.33714 10.5583C7.09341 10.3312 6.77105 10.2075 6.43796 10.2134C6.10487 10.2193 5.78707 10.3542 5.55151 10.5898C5.31594 10.8254 5.18101 11.1432 5.17513 11.4762C5.16925 11.8093 5.29289 12.1317 5.52 12.3754L11.0914 17.9469L12 18.8571L12.9086 17.9486L18.48 12.3771C18.5995 12.2577 18.6943 12.116 18.7589 11.9599C18.8236 11.8039 18.8569 11.6366 18.8569 11.4677C18.8569 11.2988 18.8236 11.1315 18.7589 10.9755C18.6943 10.8195 18.5995 10.6777 18.48 10.5583ZM2.57143 15C2.57143 14.659 2.43597 14.332 2.19485 14.0909C1.95373 13.8497 1.62671 13.7143 1.28571 13.7143C0.944722 13.7143 0.617695 13.8497 0.376577 14.0909C0.135459 14.332 5.08119e-09 14.659 0 15V20.5714C0 21.4807 0.361224 22.3528 1.00421 22.9958C1.64719 23.6388 2.51926 24 3.42857 24H20.5714C21.4807 24 22.3528 23.6388 22.9958 22.9958C23.6388 22.3528 24 21.4807 24 20.5714V15C24 14.659 23.8645 14.332 23.6234 14.0909C23.3823 13.8497 23.0553 13.7143 22.7143 13.7143C22.3733 13.7143 22.0463 13.8497 21.8051 14.0909C21.564 14.332 21.4286 14.659 21.4286 15V20.5714C21.4286 20.7988 21.3383 21.0168 21.1775 21.1775C21.0168 21.3383 20.7988 21.4286 20.5714 21.4286H3.42857C3.20124 21.4286 2.98323 21.3383 2.82248 21.1775C2.66173 21.0168 2.57143 20.7988 2.57143 20.5714V15Z" fill="white"/>
</svg>
