<svg width="117" height="40" viewBox="0 0 117 40" fill="none" xmlns="http://www.w3.org/2000/svg">
<path d="M13.0745 9.84975C13.1816 9.74212 13.3557 9.74119 13.4641 9.84767L19.2782 15.563C22.0247 18.6984 23.6637 22.6482 23.9429 26.8047L24.4685 34.6292V39.7241C24.4685 39.8765 24.3449 40 24.1923 40H17.7847C17.6299 40 17.5052 39.8728 17.5086 39.7182L17.7757 27.3787L17.7299 27.0097C17.3215 23.7181 15.6352 20.7182 13.034 18.6561C12.9338 18.5766 12.79 18.5843 12.6988 18.6739L9.22547 22.0882C9.11887 22.193 9.11515 22.3635 9.2171 22.4728L14.2182 27.8359C14.7581 28.4149 15.1274 29.1318 15.2852 29.9072C15.3964 30.4541 15.3999 31.0174 15.2953 31.5657L15.2779 31.6571C15.1245 32.4613 14.7663 33.2125 14.2378 33.8382L9.11674 39.902C9.06426 39.9641 8.98701 40 8.90561 40H0.276768C0.030604 40 -0.0925959 39.7027 0.0815776 39.5289L8.70187 30.9304C8.80984 30.8227 8.80991 30.648 8.70203 30.5402L0.760164 22.6053C0.652539 22.4977 0.65232 22.3235 0.759674 22.2157L13.0745 9.84975Z" fill="#0D1E46"/>
<path d="M40.6842 35.2295C40.5764 35.1218 40.5764 34.9471 40.6842 34.8394L44.1998 31.3283C44.3077 31.2205 44.4826 31.2205 44.5905 31.3283L48.1061 34.8394C48.214 34.9471 48.214 35.1218 48.1061 35.2295L44.5905 38.7407C44.4826 38.8484 44.3077 38.8484 44.1998 38.7407L40.6842 35.2295Z" fill="#007CC5"/>
<path d="M57.7043 9.73649C57.5954 9.62986 57.4187 9.62986 57.3097 9.73649L44.6844 22.0908C44.577 22.1959 44.4052 22.1959 44.2978 22.0908L31.7572 9.8194C31.6483 9.71278 31.4716 9.71278 31.3626 9.8194L27.3124 13.7827C27.2034 13.8893 27.2034 14.0622 27.3124 14.1688L31.2096 17.9824C31.2677 18.0393 31.2978 18.1188 31.2918 18.1998L30.2218 32.6486L29.8091 39.675C29.7998 39.8335 29.926 39.9668 30.0849 39.9664L36.8243 39.9514C36.972 39.9511 37.0936 39.8349 37.1003 39.6875L37.7658 25.0415C37.7766 24.8033 38.0645 24.6901 38.235 24.857L44.2286 30.7219C44.336 30.827 44.5078 30.827 44.6152 30.7219L48.8617 26.5665C48.8645 26.5638 48.8645 26.5594 48.8617 26.5568C48.859 26.5541 48.859 26.5497 48.8618 26.547L50.9936 24.461C51.1636 24.2946 51.4505 24.4065 51.4627 24.6439L52.2369 39.7219C52.2445 39.8685 52.3657 39.9838 52.5127 39.9842L59.2601 40C59.4191 40.0004 59.5453 39.8671 59.536 39.7086L59.122 32.6587L58.0168 17.7254C58.0108 17.6444 58.0409 17.5649 58.099 17.508L61.6754 14.0084C61.7844 13.9018 61.7844 13.7289 61.6754 13.6223L57.7043 9.73649Z" fill="#0D1E46"/>
<path d="M27.2307 1.60094L44.1116 17.7774C44.3253 17.9823 44.6628 17.9823 44.8765 17.7774L61.7573 1.60094C61.7573 0.716764 59.8251 0 57.4415 0C55.0579 0 53.1257 0.716764 53.1257 1.60094C53.1257 0.716764 51.1934 0 48.8098 0C46.5786 0 44.7429 0.628054 44.5173 1.43357L48.4969 5.18562C48.6078 5.2902 48.6078 5.45977 48.4969 5.56435L44.6522 9.18924C44.5413 9.29383 44.3614 9.29383 44.2505 9.18924L40.4498 5.60586C40.3388 5.50128 40.3388 5.33171 40.4498 5.22713L44.4713 1.43558C44.2482 0.6291 42.4112 0 40.1782 0C37.7946 0 35.8623 0.716764 35.8623 1.60094C35.8623 0.716764 33.9301 0 31.5465 0C29.1629 0 27.2307 0.716767 27.2307 1.60094Z" fill="#007CC5"/>
<path d="M92.1408 13.8078L96.2115 9.65517L100.514 14.0447L104.556 9.92211L108.612 14.0597L112.929 9.65517L117 13.8078L110.846 20.0861L112.837 26.3249C113.263 27.6595 113.585 29.0264 113.8 30.4127L115.287 39.9875L108.487 40L107.973 34.7005L106.936 29.4021L104.761 21.3472C104.688 21.0751 104.301 21.0751 104.228 21.3472L102.084 29.2905L101.038 34.6294L100.514 39.9682H93.7108L95.2203 30.2893C95.4348 28.9137 95.7546 27.5573 96.1766 26.2326L98.1742 19.9626L92.1408 13.8078Z" fill="#0D1E46"/>
<path fill-rule="evenodd" clip-rule="evenodd" d="M64.5988 13.513C64.493 13.6204 64.493 13.7926 64.5988 13.9L70.3785 19.7664C70.4505 19.8395 70.476 19.9463 70.4447 20.0439L68.4801 26.1796C68.0543 27.5094 67.7317 28.8711 67.5152 30.2521L66.0422 39.65C66.016 39.8174 66.1455 39.9686 66.3151 39.9686H72.6064C72.7484 39.9686 72.8673 39.8609 72.8813 39.7197L73.0834 37.6683L76.9491 37.5446L80.6726 37.6638L80.876 39.7509C80.8898 39.8924 81.009 40.0003 81.1514 40L87.4397 39.9885C87.609 39.9882 87.7382 39.8373 87.7121 39.6702L86.2616 30.3759C86.0443 28.9842 85.7193 27.6121 85.2895 26.2722L83.3314 20.1679C83.3001 20.0703 83.3256 19.9634 83.3976 19.8903L89.2993 13.9C89.4051 13.7926 89.4051 13.6204 89.2993 13.513L85.5796 9.73755C85.4714 9.62771 85.2941 9.62771 85.1859 9.73755L81.2233 13.7595C81.1151 13.8694 80.9378 13.8694 80.8296 13.7595L77.1311 10.0055C77.0228 9.89569 76.8455 9.89569 76.7373 10.0055L73.0537 13.7444C72.9454 13.8543 72.7681 13.8543 72.6599 13.7444L68.7122 9.73755C68.604 9.62771 68.4267 9.62771 68.3185 9.73755L64.5988 13.513ZM79.8297 31.8723L79.3358 29.3613L77.139 21.266C77.0652 20.9944 76.6794 20.9944 76.6058 21.2661L74.4409 29.2494L73.9231 31.8769L76.9491 31.78L79.8297 31.8723Z" fill="#0D1E46"/>
</svg>
