<svg width="24" height="16" viewBox="0 0 24 16" fill="none" xmlns="http://www.w3.org/2000/svg">
<path fill-rule="evenodd" clip-rule="evenodd" d="M24 1.14286C24 0.511675 23.4627 0 22.8 0H1.2C0.537259 0 -1.18528e-06 0.511675 -1.18528e-06 1.14286C-1.18528e-06 1.77404 0.537259 2.28571 1.2 2.28571H22.8C23.4627 2.28571 24 1.77404 24 1.14286Z" fill="#007CC5"/>
<path fill-rule="evenodd" clip-rule="evenodd" d="M24 8C24 7.36882 23.4627 6.85714 22.8 6.85714H1.2C0.537259 6.85714 -1.18528e-06 7.36882 -1.18528e-06 8C-1.18528e-06 8.63118 0.537259 9.14286 1.2 9.14286H22.8C23.4627 9.14286 24 8.63118 24 8Z" fill="#007CC5"/>
<path fill-rule="evenodd" clip-rule="evenodd" d="M24 14.8571C24 14.226 23.4627 13.7143 22.8 13.7143H1.2C0.537258 13.7143 -1.18528e-06 14.226 -1.18528e-06 14.8571C-1.18528e-06 15.4883 0.537258 16 1.2 16H22.8C23.4627 16 24 15.4883 24 14.8571Z" fill="#007CC5"/>
</svg>
