<svg width="120" height="40" viewBox="0 0 120 40" fill="none" xmlns="http://www.w3.org/2000/svg">
<rect x="0.5" y="0.5" width="119" height="39" rx="5.5" fill="#EBEBEB"/>
<rect x="0.5" y="0.5" width="119" height="39" rx="5.5" stroke="#A6A6A6"/>
<path d="M17.8051 19.4617L8.08984 30.0059C8.09076 30.0078 8.09076 30.0106 8.09167 30.0125C8.39005 31.1574 9.41203 32 10.6256 32C11.1111 32 11.5664 31.8656 11.957 31.6305L11.988 31.6118L22.9232 25.1593L17.8051 19.4617Z" fill="#EA4335"/>
<path d="M27.6332 17.6662L27.624 17.6597L22.9029 14.8612L17.584 19.7013L22.922 25.1582L27.6177 22.3878C28.4407 21.9324 29.0001 21.045 29.0001 20.0223C29.0001 19.0052 28.4489 18.1225 27.6332 17.6662Z" fill="#FBBC04"/>
<path d="M8.08942 9.99325C8.03102 10.2135 8 10.4449 8 10.6838V29.3163C8 29.5552 8.03102 29.7866 8.09034 30.0059L18.1386 19.7313L8.08942 9.99325Z" fill="#4285F4"/>
<path d="M17.8767 20L22.9044 14.8594L11.982 8.3836C11.5851 8.14005 11.1215 8.00009 10.6261 8.00009C9.41246 8.00009 8.38865 8.84456 8.09027 9.99043C8.09027 9.99136 8.08936 9.9923 8.08936 9.99323L17.8767 20Z" fill="#34A853"/>
<path d="M42.18 10.14C41.9267 9.66667 41.6033 9.32333 41.21 9.11C40.8233 8.89667 40.4 8.79 39.94 8.79C39.4733 8.79 39.0467 8.90333 38.66 9.13C38.2733 9.35667 37.9667 9.67333 37.74 10.08C37.52 10.48 37.41 10.9533 37.41 11.5C37.41 12.04 37.52 12.5133 37.74 12.92C37.96 13.3267 38.26 13.6433 38.64 13.87C39.0267 14.0967 39.4567 14.21 39.93 14.21C40.27 14.21 40.59 14.15 40.89 14.03C41.19 13.91 41.45 13.7433 41.67 13.53C41.8967 13.3167 42.0733 13.0633 42.2 12.77V12.01H40V11.19H43.21V12.82C43.05 13.2467 42.81 13.63 42.49 13.97C42.1767 14.31 41.8 14.58 41.36 14.78C40.9267 14.9733 40.45 15.07 39.93 15.07C39.4367 15.07 38.9733 14.9833 38.54 14.81C38.1133 14.6367 37.74 14.3933 37.42 14.08C37.1 13.76 36.85 13.3833 36.67 12.95C36.49 12.51 36.4 12.0267 36.4 11.5C36.4 10.98 36.49 10.5033 36.67 10.07C36.85 9.63 37.1 9.25 37.42 8.93C37.74 8.61 38.1133 8.36333 38.54 8.19C38.9733 8.01667 39.4367 7.93 39.93 7.93C40.3767 7.93 40.8033 8.00333 41.21 8.15C41.6167 8.29667 41.98 8.51 42.3 8.79C42.62 9.07 42.87 9.41333 43.05 9.82L42.18 10.14ZM49.1458 8.84H45.4658V11.03H48.2258V11.87H45.4658V14.16H49.1458V15H44.4658V8H49.1458V8.84ZM50.1402 8H55.5102V8.84H53.3302V15H52.3302V8.84H50.1402V8ZM59.4951 8H60.4951V15H59.4951V8ZM61.6832 8H67.0532V8.84H64.8732V15H63.8732V8.84H61.6832V8ZM74.178 15.07C73.6847 15.07 73.2214 14.9833 72.788 14.81C72.3614 14.6367 71.988 14.3933 71.668 14.08C71.348 13.76 71.098 13.3833 70.918 12.95C70.738 12.51 70.648 12.0267 70.648 11.5C70.648 10.9733 70.738 10.4933 70.918 10.06C71.098 9.62667 71.348 9.25 71.668 8.93C71.988 8.61 72.3614 8.36333 72.788 8.19C73.2214 8.01667 73.6847 7.93 74.178 7.93C74.6647 7.93 75.1214 8.01667 75.548 8.19C75.9747 8.36333 76.348 8.61 76.668 8.93C76.988 9.25 77.238 9.62667 77.418 10.06C77.598 10.4933 77.688 10.9733 77.688 11.5C77.688 12.0267 77.598 12.51 77.418 12.95C77.238 13.3833 76.988 13.76 76.668 14.08C76.348 14.3933 75.9747 14.6367 75.548 14.81C75.1214 14.9833 74.6647 15.07 74.178 15.07ZM74.178 14.21C74.6514 14.21 75.0747 14.1 75.448 13.88C75.828 13.66 76.128 13.3467 76.348 12.94C76.568 12.5333 76.678 12.0533 76.678 11.5C76.678 10.94 76.568 10.46 76.348 10.06C76.128 9.65333 75.828 9.34 75.448 9.12C75.0747 8.9 74.6514 8.79 74.178 8.79C73.698 8.79 73.268 8.9 72.888 9.12C72.508 9.34 72.208 9.65333 71.988 10.06C71.7747 10.46 71.668 10.94 71.668 11.5C71.668 12.0533 71.7747 12.5333 71.988 12.94C72.208 13.3467 72.508 13.66 72.888 13.88C73.268 14.1 73.698 14.21 74.178 14.21ZM84.3801 8V15H83.3601L79.8701 9.58V15H78.8701V8H79.8901L83.3801 13.4V8H84.3801Z" fill="#0D1E46"/>
<path d="M93.5181 31.4097H95.1469V20.3981H93.5181V31.4097ZM108.189 24.3646L106.322 29.1388H106.266L104.328 24.3646H102.573L105.479 31.0371L103.823 34.749H105.521L110 24.3646H108.189ZM98.9519 30.1588C98.4176 30.1588 97.6739 29.8902 97.6739 29.2234C97.6739 28.3742 98.6001 28.0483 99.4005 28.0483C100.116 28.0483 100.454 28.2042 100.889 28.4165C100.762 29.4365 99.892 30.1588 98.9519 30.1588ZM99.1483 24.1241C97.969 24.1241 96.7469 24.6482 96.2424 25.8101L97.6879 26.4188C97.9969 25.8101 98.5721 25.611 99.1762 25.611C100.019 25.611 100.875 26.121 100.889 27.0283V27.1411C100.594 26.971 99.9627 26.7165 99.1902 26.7165C97.632 26.7165 96.0451 27.5806 96.0451 29.1952C96.0451 30.6689 97.323 31.6184 98.7546 31.6184C99.8501 31.6184 100.454 31.1225 100.833 30.5411H100.889V31.3912H102.461V27.1692C102.461 25.2146 101.015 24.1241 99.1483 24.1241ZM89.0821 25.7053H86.7655V21.9308H89.0821C90.2998 21.9308 90.9911 22.9482 90.9911 23.8176C90.9911 24.6711 90.2998 25.7053 89.0821 25.7053ZM89.0402 20.3981H85.1375V31.4097H86.7655V27.2379H89.0402C90.8453 27.2379 92.6199 25.9184 92.6199 23.8176C92.6199 21.7168 90.8453 20.3981 89.0402 20.3981ZM67.7583 30.1606C66.6332 30.1606 65.6913 29.2102 65.6913 27.9047C65.6913 26.5852 66.6332 25.6198 67.7583 25.6198C68.8695 25.6198 69.7406 26.5852 69.7406 27.9047C69.7406 29.2102 68.8695 30.1606 67.7583 30.1606ZM69.6289 24.9812H69.5722C69.2064 24.5417 68.5038 24.1444 67.6178 24.1444C65.7611 24.1444 64.0599 25.7898 64.0599 27.9047C64.0599 30.0047 65.7611 31.6369 67.6178 31.6369C68.5038 31.6369 69.2064 31.2396 69.5722 30.7851H69.6289V31.3251C69.6289 32.7582 68.8695 33.5246 67.6457 33.5246C66.6471 33.5246 66.0282 32.8005 65.7751 32.1901L64.3549 32.7864C64.7626 33.78 65.8458 35 67.6457 35C69.5582 35 71.1757 33.8646 71.1757 31.0978V24.3708H69.6289V24.9812ZM72.3008 31.4097H73.9323V20.3973H72.3008V31.4097ZM76.3362 27.777C76.2943 26.3298 77.4474 25.5916 78.2766 25.5916C78.9243 25.5916 79.4725 25.9176 79.6549 26.3862L76.3362 27.777ZM81.3989 26.528C81.0899 25.6912 80.1472 24.1444 78.2208 24.1444C76.3083 24.1444 74.7196 25.6621 74.7196 27.8907C74.7196 29.9906 76.2943 31.6369 78.4032 31.6369C80.1053 31.6369 81.0899 30.5869 81.4976 29.9765L80.2319 29.1247C79.8103 29.7493 79.2333 30.1606 78.4032 30.1606C77.5739 30.1606 76.983 29.7774 76.6033 29.0261L81.5674 26.9534L81.3989 26.528ZM41.8501 25.2939V26.883H45.6184C45.5058 27.777 45.2107 28.4297 44.7612 28.8834C44.2121 29.4374 43.3541 30.0479 41.8501 30.0479C39.5291 30.0479 37.7152 28.1602 37.7152 25.8189C37.7152 23.4767 39.5291 21.5899 41.8501 21.5899C43.1018 21.5899 44.0157 22.0867 44.6905 22.7254L45.8017 21.604C44.8589 20.6959 43.6081 20 41.8501 20C38.6719 20 36 22.6117 36 25.8189C36 29.0261 38.6719 31.6369 41.8501 31.6369C43.5653 31.6369 44.8589 31.0688 45.8715 30.0047C46.9129 28.9547 47.2358 27.4793 47.2358 26.2866C47.2358 25.9176 47.2079 25.5775 47.1512 25.2939H41.8501ZM51.5208 30.1606C50.3957 30.1606 49.425 29.2243 49.425 27.8907C49.425 26.5421 50.3957 25.6198 51.5208 25.6198C52.6451 25.6198 53.6158 26.5421 53.6158 27.8907C53.6158 29.2243 52.6451 30.1606 51.5208 30.1606ZM51.5208 24.1444C49.4669 24.1444 47.7936 25.7194 47.7936 27.8907C47.7936 30.0479 49.4669 31.6369 51.5208 31.6369C53.5739 31.6369 55.2472 30.0479 55.2472 27.8907C55.2472 25.7194 53.5739 24.1444 51.5208 24.1444ZM59.65 30.1606C58.5249 30.1606 57.5542 29.2243 57.5542 27.8907C57.5542 26.5421 58.5249 25.6198 59.65 25.6198C60.7752 25.6198 61.745 26.5421 61.745 27.8907C61.745 29.2243 60.7752 30.1606 59.65 30.1606ZM59.65 24.1444C57.597 24.1444 55.9237 25.7194 55.9237 27.8907C55.9237 30.0479 57.597 31.6369 59.65 31.6369C61.7031 31.6369 63.3764 30.0479 63.3764 27.8907C63.3764 25.7194 61.7031 24.1444 59.65 24.1444Z" fill="#0D1E46"/>
</svg>
