<svg width="120" height="40" viewBox="0 0 120 40" fill="none" xmlns="http://www.w3.org/2000/svg">
<rect x="0.5" y="0.5" width="119" height="39" rx="5.5" fill="#EBEBEB"/>
<rect x="0.5" y="0.5" width="119" height="39" rx="5.5" stroke="#A6A6A6"/>
<path fill-rule="evenodd" clip-rule="evenodd" d="M23.2477 7.99974H12.7523C7.80833 7.99974 6 9.8131 6 14.7709V25.2955C6 30.2531 7.80833 32.0664 12.7523 32.0664H23.2444C28.1884 32.0664 30 30.2531 30 25.2955V14.7709C30 9.8131 28.1917 7.99974 23.2477 7.99974" fill="#C91C2E"/>
<path d="M16.4704 21.9581H17.4329L16.9501 20.8322L16.4704 21.9581ZM16.2334 22.5256L15.9479 23.1807H15.2979L16.6803 20.0359H17.2419L18.6188 23.1807H17.9513L17.6694 22.5256H16.2334ZM26.6931 23.1785H27.3214V20.0359H26.6931V23.1785ZM24.1928 21.8281H25.3506V21.2555H24.1928V20.6112H25.8736V20.0379H23.5648V23.1804H25.9342V22.6072H24.1928V21.8281ZM21.6966 22.1995L20.9842 20.0358H20.4647L19.7523 22.1995L19.0591 20.0373H18.3815L19.4752 23.1822H20.0022L20.7156 21.1164L21.4288 23.1822H21.9606L23.0514 20.0373H22.3913L21.6966 22.1995ZM14.3389 21.8368C14.3389 22.3484 14.0856 22.6218 13.6255 22.6218C13.1629 22.6218 12.9083 22.3407 12.9083 21.8151V20.0377H12.2716V21.8368C12.2716 22.722 12.762 23.2295 13.6169 23.2295C14.4802 23.2295 14.9753 22.7123 14.9753 21.8108V20.0358H14.3389V21.8368ZM10.7526 20.0359H11.389V23.1824H10.7526V21.9046H9.31485V23.1824H8.67822V20.0359H9.31485V21.3052H10.7526V20.0359Z" fill="white"/>
<path d="M18.0002 16.0293C15.7975 16.0293 14.0054 14.2321 14.0054 12.0233H14.5697C14.5697 13.9201 16.1085 15.4634 18.0002 15.4634C19.8919 15.4634 21.4307 13.9201 21.4307 12.0233H21.9951C21.9951 14.2321 20.2029 16.0293 18.0002 16.0293" fill="white"/>
<path d="M39.334 26.7661H42.4058L41.3061 23.8684C41.1547 23.468 41.0059 23.0259 40.8592 22.5417C40.7268 22.9701 40.5825 23.4075 40.4264 23.8544L39.334 26.7661ZM42.9307 28.1417H38.8161L37.809 30.8509H36L40.0292 20.7332H41.7389L45.8604 30.8509H43.9593L42.9307 28.1417Z" fill="#0D1E46"/>
<path d="M51.1968 29.011C51.5539 28.5386 51.7324 27.8484 51.7324 26.9407C51.7324 26.0983 51.5846 25.4871 51.2891 25.1076C50.9933 24.7283 50.5997 24.5387 50.1078 24.5387C49.7673 24.5387 49.4529 24.618 49.1644 24.7761C48.876 24.9344 48.6016 25.1461 48.3415 25.4114V29.4475C48.5165 29.5312 48.7199 29.5976 48.9517 29.6462C49.1834 29.6954 49.4128 29.7198 49.6397 29.7198C50.3208 29.7198 50.8396 29.4834 51.1968 29.011ZM46.5894 25.1602C46.5894 24.6016 46.5705 23.987 46.5327 23.3168H48.1784C48.2398 23.6287 48.2824 23.9476 48.3061 24.2733C48.9871 23.5426 49.7674 23.177 50.647 23.177C51.1579 23.177 51.6307 23.3039 52.0659 23.5575C52.5008 23.8113 52.852 24.2116 53.1192 24.7585C53.3865 25.3056 53.5201 26.0005 53.5201 26.8429C53.5201 27.7227 53.3676 28.4746 53.0625 29.0982C52.7574 29.7222 52.3306 30.1945 51.7821 30.5158C51.2335 30.8369 50.5997 30.9976 49.881 30.9976C49.3606 30.9976 48.8474 30.9114 48.3415 30.7393V33.8533L46.5894 34V25.1602Z" fill="#0D1E46"/>
<path d="M59.1908 29.011C59.5479 28.5386 59.7264 27.8484 59.7264 26.9407C59.7264 26.0983 59.5786 25.4871 59.2831 25.1076C58.9874 24.7283 58.5937 24.5387 58.1018 24.5387C57.7614 24.5387 57.4469 24.618 57.1585 24.7761C56.8698 24.9344 56.5956 25.1461 56.3355 25.4114V29.4475C56.5105 29.5312 56.7137 29.5976 56.9457 29.6462C57.1772 29.6954 57.4066 29.7198 57.6337 29.7198C58.3146 29.7198 58.8336 29.4834 59.1908 29.011ZM54.5832 25.1602C54.5832 24.6016 54.5642 23.987 54.5265 23.3168H56.1724C56.2338 23.6287 56.2765 23.9476 56.3001 24.2733C56.9811 23.5426 57.7614 23.177 58.641 23.177C59.1519 23.177 59.6245 23.3039 60.0599 23.5575C60.4948 23.8113 60.846 24.2116 61.1134 24.7585C61.3803 25.3056 61.5141 26.0005 61.5141 26.8429C61.5141 27.7227 61.3613 28.4746 61.0565 29.0982C60.7514 29.7222 60.3244 30.1945 59.7761 30.5158C59.2273 30.8369 58.5937 30.9976 57.8748 30.9976C57.3546 30.9976 56.8414 30.9114 56.3355 30.7393V33.8533L54.5832 34V25.1602Z" fill="#0D1E46"/>
<path d="M64.7328 30.3726C63.9759 29.9608 63.3943 29.3706 62.9878 28.6025C62.5807 27.8344 62.3776 26.9267 62.3776 25.8793C62.3776 24.7436 62.6117 23.7787 63.0799 22.9849C63.5481 22.1915 64.1854 21.5955 64.9915 21.1975C65.798 20.7995 66.7023 20.6005 67.7052 20.6005C68.2962 20.6005 68.8602 20.6645 69.3971 20.7925C69.9337 20.9206 70.4337 21.0962 70.8974 21.3198L70.4503 22.6463C69.5187 22.2088 68.6296 21.99 67.7833 21.99C67.069 21.99 66.4436 22.1402 65.907 22.4405C65.3702 22.7408 64.9526 23.1818 64.6548 23.7637C64.3567 24.3456 64.2079 25.0484 64.2079 25.8723C64.2079 26.5941 64.3225 27.2339 64.5517 27.7925C64.7813 28.3511 65.1431 28.7935 65.6373 29.1192C66.1315 29.4451 66.7546 29.6079 67.5065 29.6079C67.847 29.6079 68.1875 29.5801 68.528 29.5242C68.8684 29.4685 69.1878 29.387 69.4856 29.2798V27.2339H67.1093V25.8933H71.1882V30.1528C70.6017 30.4226 69.9857 30.63 69.3404 30.7741C68.6946 30.9183 68.0527 30.9905 67.4142 30.9905C66.3832 30.9905 65.4892 30.7848 64.7328 30.3726Z" fill="#0D1E46"/>
<path d="M76.365 29.4543C76.7289 29.2823 77.0269 29.068 77.2587 28.812V27.4155C76.7809 27.3644 76.3908 27.3387 76.0882 27.3387C75.3646 27.3387 74.8643 27.4538 74.5881 27.6844C74.3111 27.9145 74.1729 28.2255 74.1729 28.6164C74.1729 28.9891 74.2734 29.2648 74.4744 29.4439C74.6755 29.6232 74.9485 29.7127 75.2936 29.7127C75.6435 29.7127 76.0006 29.6267 76.365 29.4543ZM77.4148 30.8509C77.3531 30.5575 77.3128 30.2249 77.2941 29.8524C77.0246 30.1691 76.6736 30.4378 76.2406 30.659C75.8082 30.88 75.3197 30.9905 74.7758 30.9905C74.336 30.9905 73.9353 30.9056 73.5732 30.7356C73.2119 30.5658 72.9244 30.3098 72.7116 29.9675C72.4988 29.6255 72.3922 29.2078 72.3922 28.7141C72.3922 27.9835 72.6593 27.4003 73.1938 26.965C73.7283 26.5298 74.6197 26.3122 75.8682 26.3122C76.3364 26.3122 76.7999 26.345 77.2587 26.41V26.2634C77.2587 25.5978 77.1143 25.1288 76.8259 24.8563C76.5374 24.5842 76.1236 24.4479 75.5847 24.4479C75.2109 24.4479 74.8114 24.5016 74.3856 24.6085C73.9601 24.7157 73.5863 24.8437 73.2648 24.9926L72.9881 23.7357C73.3002 23.596 73.7117 23.468 74.2225 23.3516C74.7334 23.2354 75.2723 23.177 75.8398 23.177C76.502 23.177 77.0647 23.2759 77.5282 23.4737C77.9917 23.6716 78.3535 24.0116 78.6136 24.4932C78.8737 24.9752 79.0037 25.6234 79.0037 26.4379V29.4333C79.0037 29.7454 79.0225 30.2181 79.0604 30.8509H77.4148Z" fill="#0D1E46"/>
<path d="M80.348 29.0424V20.1397L82.093 20V28.7352C82.093 29.0564 82.1486 29.2832 82.2597 29.416C82.3707 29.5485 82.5469 29.6151 82.7883 29.6151C82.897 29.6151 83.0507 29.5896 83.2492 29.5383L83.4549 30.7741C83.2893 30.8394 83.0873 30.8917 82.8487 30.9312C82.6097 30.9706 82.3838 30.9905 82.1711 30.9905C80.9554 30.9905 80.348 30.3412 80.348 29.0424Z" fill="#0D1E46"/>
<path d="M84.7107 29.0424V20.1397L86.4557 20V28.7352C86.4557 29.0564 86.5113 29.2832 86.6223 29.416C86.7336 29.5485 86.9099 29.6151 87.151 29.6151C87.2597 29.6151 87.4134 29.5896 87.6121 29.5383L87.8179 30.7741C87.6522 30.8394 87.45 30.8917 87.2114 30.9312C86.9724 30.9706 86.7465 30.9905 86.5338 30.9905C85.3183 30.9905 84.7107 30.3412 84.7107 29.0424Z" fill="#0D1E46"/>
<path d="M93.2861 26.2076C93.251 25.607 93.0986 25.1567 92.8245 24.8563C92.5503 24.5562 92.1824 24.4059 91.7255 24.4059C91.2803 24.4059 90.91 24.5574 90.6148 24.8599C90.3195 25.1626 90.125 25.6117 90.036 26.2076H93.2861ZM94.9943 27.3038H89.9868C90.0665 28.8819 90.8304 29.6709 92.2785 29.6709C92.637 29.6709 93.0049 29.6278 93.3822 29.5418C93.7571 29.4555 94.118 29.3404 94.4624 29.196L94.8467 30.376C93.9891 30.7859 93.0284 30.9905 91.9598 30.9905C91.1444 30.9905 90.4601 30.8394 89.9024 30.5367C89.3424 30.2342 88.9229 29.7989 88.6418 29.2309C88.361 28.6632 88.2202 27.9789 88.2202 27.1781C88.2202 26.345 88.3693 25.628 88.6675 25.0275C88.9651 24.4269 89.3799 23.9685 89.9118 23.6519C90.4437 23.3354 91.0577 23.177 91.7536 23.177C92.4777 23.177 93.0799 23.3435 93.565 23.6764C94.05 24.0091 94.4085 24.4526 94.6429 25.0064C94.8772 25.5607 94.9943 26.1726 94.9943 26.8429V27.3038Z" fill="#0D1E46"/>
<path d="M96.3206 25.209C96.3206 24.7948 96.2995 24.1641 96.262 23.3168H97.9023C97.9304 23.5263 97.9562 23.7764 97.9843 24.0675C98.0101 24.3583 98.0265 24.5945 98.0359 24.7761C98.2397 24.4456 98.4389 24.1675 98.6357 23.9418C98.8326 23.7158 99.0622 23.5321 99.3247 23.3899C99.5871 23.248 99.8847 23.177 100.222 23.177C100.492 23.177 100.721 23.2051 100.916 23.2609L100.695 24.7552C100.527 24.704 100.337 24.6783 100.128 24.6783C99.7183 24.6783 99.3575 24.7819 99.0505 24.9892C98.7435 25.1961 98.4155 25.5371 98.064 26.0119V30.8509H96.3206V25.209Z" fill="#0D1E46"/>
<path d="M101.9 33.9336C101.645 33.8895 101.434 33.8394 101.27 33.7837L101.588 32.5268C101.705 32.5592 101.855 32.5907 102.036 32.621C102.214 32.6514 102.385 32.6664 102.547 32.6664C103.322 32.6664 103.903 32.1751 104.29 31.193L104.405 30.9137L101.581 23.3168H103.461L104.881 27.5621C105.11 28.2884 105.26 28.8447 105.326 29.2309C105.459 28.6863 105.614 28.1417 105.794 27.597L107.236 23.3168H109L106.186 30.9488C105.921 31.6702 105.633 32.2519 105.326 32.6943C105.019 33.1364 104.656 33.4646 104.238 33.6789C103.819 33.8928 103.315 34 102.722 34C102.429 34 102.155 33.9781 101.9 33.9336Z" fill="#0D1E46"/>
<path d="M38 9.08347H41.5541L41.4541 9.94187H39.0416V11.6043H41.3165V12.4085H39.0416V14.2501H41.5832L41.4957 15.1168H38V9.08347Z" fill="#0D1E46"/>
<path d="M44.004 12.0376L42.1291 9.08347H43.3123L44.5832 11.2544L45.9208 9.08347H47.0707L45.2123 12L47.2248 15.1168H46.0248L44.5875 12.7419L43.1248 15.1168H41.9749L44.004 12.0376Z" fill="#0D1E46"/>
<path d="M50.604 11.7771C50.8261 11.576 50.9373 11.2917 50.9373 10.9251C50.9373 10.5528 50.824 10.2851 50.5978 10.1211C50.3714 9.95707 50.0387 9.87521 49.6 9.87521H49.0333V12.0168C49.2944 12.0584 49.4944 12.0792 49.6333 12.0792C50.0581 12.0792 50.3819 11.9787 50.604 11.7771ZM47.9915 9.08347H49.6165C50.3803 9.08347 50.9651 9.23921 51.3707 9.55014C51.7763 9.86134 51.9789 10.3112 51.9789 10.9C51.9789 11.3 51.888 11.6496 51.7061 11.948C51.524 12.2467 51.2706 12.476 50.9456 12.6355C50.6208 12.7955 50.2469 12.8752 49.8248 12.8752C49.5944 12.8752 49.3304 12.8475 49.0333 12.7917V15.1168H47.9915V9.08347Z" fill="#0D1E46"/>
<path d="M53.0083 9.08347H54.0499V14.2251H56.5456L56.4581 15.1168H53.0083V9.08347Z" fill="#0D1E46"/>
<path d="M60.829 14.0813C61.1208 13.8856 61.3387 13.6163 61.4832 13.2731C61.6277 12.9301 61.7 12.5376 61.7 12.096C61.7 11.6627 61.636 11.2768 61.5082 10.9376C61.3802 10.5987 61.1762 10.3288 60.8957 10.1272C60.6152 9.92587 60.2541 9.82507 59.8123 9.82507C59.3901 9.82507 59.0317 9.9272 58.7373 10.1315C58.4429 10.3355 58.2221 10.6093 58.0749 10.9523C57.9277 11.2955 57.8541 11.6739 57.8541 12.0877C57.8541 12.5237 57.9234 12.9141 58.0624 13.2584C58.201 13.6029 58.4136 13.8752 58.7 14.0752C58.9859 14.2752 59.34 14.3752 59.7624 14.3752C60.1818 14.3752 60.5373 14.2771 60.829 14.0813ZM58.129 14.8211C57.6874 14.5683 57.3499 14.2133 57.1165 13.7563C56.8832 13.2995 56.7667 12.7683 56.7667 12.1627C56.7667 11.5267 56.8907 10.9704 57.1395 10.4939C57.388 10.0176 57.7464 9.6496 58.2144 9.3896C58.6824 9.13013 59.2344 9 59.8707 9C60.4789 9 61.0026 9.12587 61.4416 9.37707C61.8802 9.6288 62.2152 9.98213 62.4456 10.4376C62.6762 10.8933 62.7914 11.4211 62.7914 12.0211C62.7914 12.6683 62.6659 13.2309 62.4144 13.7085C62.1629 14.1861 61.8048 14.5544 61.3395 14.8125C60.8741 15.0709 60.3277 15.2001 59.7 15.2001C59.0944 15.2001 58.5706 15.0739 58.129 14.8211Z" fill="#0D1E46"/>
<path d="M65.5875 11.9376C65.84 11.9376 66.0637 11.8885 66.2581 11.7896C66.4525 11.6912 66.604 11.5523 66.7123 11.3731C66.8208 11.1939 66.8749 10.9861 66.8749 10.7501C66.8749 10.4475 66.779 10.2259 66.5875 10.0856C66.3958 9.94534 66.1165 9.87521 65.7499 9.87521H64.9957V11.9376H65.5875ZM63.9542 9.08347H65.8416C66.5304 9.08347 67.052 9.22107 67.4062 9.49601C67.7603 9.77094 67.9374 10.1643 67.9374 10.6752C67.9374 10.9947 67.8733 11.276 67.7456 11.5189C67.6179 11.7621 67.4595 11.96 67.2707 12.1125C67.0816 12.2653 66.8875 12.3792 66.6875 12.4544L68.5416 15.1168H67.3333L65.7624 12.7251H64.9957V15.1168H63.9542V9.08347Z" fill="#0D1E46"/>
<path d="M69.3667 9.08347H72.9208L72.8208 9.94187H70.4082V11.6043H72.6832V12.4085H70.4082V14.2501H72.9499L72.8624 15.1168H69.3667V9.08347Z" fill="#0D1E46"/>
<path d="M76.7875 9.08347H77.8291V15.1168H76.7875V9.08347Z" fill="#0D1E46"/>
<path d="M80.5832 9.95441H78.7123L78.804 9.08347H83.5L83.404 9.95441H81.6248V15.1168H80.5832V9.95441Z" fill="#0D1E46"/>
<path d="M90.7208 14.0813C91.0123 13.8856 91.2304 13.6163 91.3749 13.2731C91.5192 12.9301 91.5915 12.5376 91.5915 12.096C91.5915 11.6627 91.5275 11.2768 91.4 10.9376C91.272 10.5987 91.0677 10.3288 90.7875 10.1272C90.5067 9.92587 90.1456 9.82507 89.704 9.82507C89.2816 9.82507 88.9235 9.9272 88.6291 10.1315C88.3344 10.3355 88.1136 10.6093 87.9667 10.9523C87.8192 11.2955 87.7456 11.6739 87.7456 12.0877C87.7456 12.5237 87.8149 12.9141 87.9541 13.2584C88.0928 13.6029 88.3053 13.8752 88.5915 14.0752C88.8776 14.2752 89.2317 14.3752 89.6541 14.3752C90.0733 14.3752 90.4291 14.2771 90.7208 14.0813ZM88.0208 14.8211C87.5789 14.5683 87.2416 14.2133 87.0083 13.7563C86.7749 13.2995 86.6581 12.7683 86.6581 12.1627C86.6581 11.5267 86.7824 10.9704 87.0312 10.4939C87.2795 10.0176 87.6379 9.6496 88.1062 9.3896C88.5742 9.13013 89.1261 9 89.7624 9C90.3707 9 90.8941 9.12587 91.3333 9.37707C91.772 9.6288 92.1067 9.98213 92.3373 10.4376C92.5677 10.8933 92.6832 11.4211 92.6832 12.0211C92.6832 12.6683 92.5574 13.2309 92.3062 13.7085C92.0547 14.1861 91.6963 14.5544 91.2312 14.8125C90.7659 15.0709 90.2192 15.2001 89.5915 15.2001C88.9859 15.2001 88.4624 15.0739 88.0208 14.8211Z" fill="#0D1E46"/>
<path d="M93.8456 9.08347H95.0416L98.0253 13.7584C97.9987 13.3141 97.988 12.9043 97.988 12.5293V9.08347H98.9533V15.1168H97.796L94.7667 10.3667C94.7971 10.9059 94.8123 11.3835 94.8123 11.8V15.1168H93.8456V9.08347Z" fill="#0D1E46"/>
</svg>
