<svg width="120" height="40" viewBox="0 0 120 40" fill="none" xmlns="http://www.w3.org/2000/svg">
<rect x="0.5" y="0.5" width="119" height="39" rx="5.5" fill="#EBEBEB"/>
<rect x="0.5" y="0.5" width="119" height="39" rx="5.5" stroke="#A6A6A6"/>
<path d="M24.7045 20.763C24.7166 19.8431 24.9669 18.9411 25.4321 18.141C25.8972 17.3409 26.5621 16.6687 27.3648 16.1869C26.8548 15.4758 26.1821 14.8907 25.4 14.4779C24.6178 14.065 23.7479 13.836 22.8592 13.8088C20.9635 13.6146 19.1258 14.9163 18.1598 14.9163C17.1751 14.9163 15.6878 13.8281 14.0862 13.8603C13.0502 13.893 12.0406 14.1871 11.1557 14.714C10.2708 15.2408 9.54075 15.9825 9.03674 16.8668C6.85352 20.5571 8.48201 25.9808 10.5734 28.9639C11.6197 30.4246 12.8426 32.0562 14.4428 31.9984C16.0086 31.9349 16.5934 31.0235 18.4835 31.0235C20.3561 31.0235 20.9048 31.9984 22.5374 31.9616C24.2176 31.9349 25.2762 30.4944 26.2859 29.0198C27.0377 27.979 27.6162 26.8287 28 25.6115C27.0238 25.2084 26.1908 24.5337 25.6048 23.6715C25.0187 22.8093 24.7056 21.7977 24.7045 20.763Z" fill="#0D1E46"/>
<path d="M21.621 11.8471C22.5372 10.7734 22.9885 9.39335 22.8792 8C21.4796 8.14352 20.1867 8.7966 19.2582 9.82911C18.8043 10.3335 18.4566 10.9203 18.235 11.556C18.0135 12.1917 17.9224 12.8638 17.9671 13.5338C18.6672 13.5408 19.3597 13.3927 19.9927 13.1005C20.6256 12.8084 21.1824 12.3798 21.621 11.8471Z" fill="#0D1E46"/>
<path d="M36.8438 14.5V8.40918H38.3467C39.2842 8.40918 39.9961 8.67285 40.4824 9.2002C40.9688 9.72754 41.2119 10.4717 41.2119 11.4326C41.2119 12.3965 40.9702 13.1494 40.4868 13.6914C40.0034 14.2305 39.3018 14.5 38.3818 14.5H36.8438ZM37.5645 13.9067H38.2896C39.0161 13.9067 39.5596 13.6885 39.9199 13.252C40.2803 12.8125 40.4604 12.2061 40.4604 11.4326C40.4604 10.6621 40.2803 10.0645 39.9199 9.63965C39.5596 9.21484 39.0161 9.00244 38.2896 9.00244H37.5645V13.9067ZM44.1958 14.6099C43.8325 14.6099 43.4927 14.5176 43.1763 14.333C42.8628 14.1484 42.6094 13.8818 42.416 13.5332C42.2256 13.1816 42.1304 12.7568 42.1304 12.2588C42.1304 11.7578 42.2256 11.3315 42.416 10.98C42.6094 10.6255 42.8628 10.356 43.1763 10.1714C43.4927 9.98389 43.8325 9.89014 44.1958 9.89014C44.5649 9.89014 44.9077 9.98389 45.2241 10.1714C45.5405 10.356 45.7939 10.6255 45.9844 10.98C46.1777 11.3315 46.2744 11.7578 46.2744 12.2588C46.2744 12.7568 46.1777 13.1816 45.9844 13.5332C45.7939 13.8818 45.5405 14.1484 45.2241 14.333C44.9077 14.5176 44.5649 14.6099 44.1958 14.6099ZM44.1958 14.021C44.5972 14.021 44.9224 13.8599 45.1714 13.5376C45.4204 13.2124 45.5449 12.7861 45.5449 12.2588C45.5449 11.7285 45.4204 11.3008 45.1714 10.9756C44.9224 10.6475 44.5972 10.4834 44.1958 10.4834C43.9351 10.4834 43.7036 10.5581 43.5015 10.7075C43.2993 10.8569 43.1411 11.0649 43.0269 11.3315C42.9155 11.5952 42.8599 11.9043 42.8599 12.2588C42.8599 12.7861 42.9844 13.2124 43.2334 13.5376C43.4824 13.8599 43.8032 14.021 44.1958 14.021ZM48.1948 14.5L46.9336 10.0044H47.6587L48.353 12.6455C48.4028 12.8594 48.4497 13.0688 48.4937 13.2739C48.5376 13.4761 48.5801 13.6841 48.6211 13.8979H48.6606C48.7104 13.6841 48.7617 13.4746 48.8145 13.2695C48.8672 13.0615 48.9214 12.8535 48.9771 12.6455L49.6802 10.0044H50.3965L51.1084 12.6455C51.1641 12.8594 51.2183 13.0688 51.271 13.2739C51.3237 13.4761 51.375 13.6841 51.4248 13.8979H51.46C51.5127 13.6841 51.561 13.4761 51.605 13.2739C51.6519 13.0688 51.7002 12.8594 51.75 12.6455L52.4268 10.0044H53.1035L51.8862 14.5H51.0161L50.3481 12.0259C50.2925 11.812 50.2397 11.5996 50.1899 11.3887C50.1431 11.1748 50.0903 10.9565 50.0317 10.7339H49.9966C49.9497 10.9565 49.9014 11.1763 49.8516 11.3931C49.8047 11.6069 49.7476 11.8208 49.6802 12.0347L49.0298 14.5H48.1948ZM54.1011 14.5V10.0044H54.6943L54.7603 10.6504H54.7778C54.9946 10.4365 55.2246 10.2563 55.4678 10.1099C55.7109 9.96338 55.9878 9.89014 56.2983 9.89014C56.7671 9.89014 57.1113 10.0396 57.3311 10.3384C57.5508 10.6343 57.6606 11.0693 57.6606 11.6436V14.5H56.9575V11.7358C56.9575 11.3081 56.8887 10.9961 56.751 10.7998C56.6133 10.6035 56.3877 10.5054 56.0742 10.5054C55.8428 10.5054 55.6333 10.5669 55.4458 10.6899C55.2583 10.813 55.0474 10.9917 54.813 11.2261V14.5H54.1011ZM59.915 14.6099C59.6455 14.6099 59.4492 14.5278 59.3262 14.3638C59.2061 14.1968 59.146 13.9551 59.146 13.6387V7.88623H59.8579V13.6958C59.8579 13.8159 59.8799 13.9009 59.9238 13.9507C59.9678 13.9976 60.0205 14.021 60.082 14.021C60.1055 14.021 60.1274 14.021 60.1479 14.021C60.1714 14.0181 60.2021 14.0122 60.2402 14.0034L60.3325 14.5352C60.2827 14.5557 60.2227 14.5732 60.1523 14.5879C60.082 14.6025 60.0029 14.6099 59.915 14.6099ZM63.2153 14.6099C62.8521 14.6099 62.5122 14.5176 62.1958 14.333C61.8823 14.1484 61.6289 13.8818 61.4355 13.5332C61.2451 13.1816 61.1499 12.7568 61.1499 12.2588C61.1499 11.7578 61.2451 11.3315 61.4355 10.98C61.6289 10.6255 61.8823 10.356 62.1958 10.1714C62.5122 9.98389 62.8521 9.89014 63.2153 9.89014C63.5845 9.89014 63.9272 9.98389 64.2437 10.1714C64.5601 10.356 64.8135 10.6255 65.0039 10.98C65.1973 11.3315 65.2939 11.7578 65.2939 12.2588C65.2939 12.7568 65.1973 13.1816 65.0039 13.5332C64.8135 13.8818 64.5601 14.1484 64.2437 14.333C63.9272 14.5176 63.5845 14.6099 63.2153 14.6099ZM63.2153 14.021C63.6167 14.021 63.9419 13.8599 64.1909 13.5376C64.4399 13.2124 64.5645 12.7861 64.5645 12.2588C64.5645 11.7285 64.4399 11.3008 64.1909 10.9756C63.9419 10.6475 63.6167 10.4834 63.2153 10.4834C62.9546 10.4834 62.7231 10.5581 62.521 10.7075C62.3188 10.8569 62.1606 11.0649 62.0464 11.3315C61.9351 11.5952 61.8794 11.9043 61.8794 12.2588C61.8794 12.7861 62.0039 13.2124 62.2529 13.5376C62.502 13.8599 62.8228 14.021 63.2153 14.021ZM67.5396 14.6099C67.1646 14.6099 66.8511 14.5015 66.5991 14.2847C66.3472 14.0649 66.2212 13.7515 66.2212 13.3442C66.2212 12.8521 66.4438 12.4741 66.8892 12.2104C67.3374 11.9468 68.0435 11.7607 69.0073 11.6523C69.0073 11.4531 68.9795 11.2642 68.9238 11.0854C68.8711 10.9067 68.7759 10.7603 68.6382 10.646C68.5034 10.5317 68.3101 10.4746 68.0581 10.4746C67.7915 10.4746 67.541 10.5259 67.3066 10.6284C67.0752 10.731 66.8716 10.8379 66.6958 10.9492L66.4189 10.4746C66.6182 10.3369 66.8687 10.2051 67.1704 10.0791C67.4751 9.95312 67.8091 9.89014 68.1724 9.89014C68.7202 9.89014 69.1143 10.0586 69.3545 10.3955C69.5977 10.7324 69.7192 11.1763 69.7192 11.7271V14.5H69.126L69.0688 13.9551H69.0425C68.8257 14.1338 68.5898 14.2876 68.335 14.4165C68.083 14.5454 67.8179 14.6099 67.5396 14.6099ZM67.7329 14.0386C67.9585 14.0386 68.1694 13.9858 68.3657 13.8804C68.5649 13.7749 68.7788 13.624 69.0073 13.4277V12.127C68.4888 12.1914 68.0771 12.2764 67.7725 12.3818C67.4678 12.4873 67.2495 12.6147 67.1177 12.7642C66.9858 12.9136 66.9199 13.0879 66.9199 13.2871C66.9199 13.5537 66.999 13.7456 67.1572 13.8628C67.3154 13.98 67.5073 14.0386 67.7329 14.0386ZM72.6899 14.6099C72.1304 14.6099 71.6807 14.4062 71.3408 13.999C71.0039 13.5889 70.8354 13.0088 70.8354 12.2588C70.8354 11.7725 70.9263 11.3521 71.1079 10.9976C71.2925 10.6431 71.5327 10.3706 71.8286 10.1802C72.1274 9.98682 72.4482 9.89014 72.791 9.89014C73.0518 9.89014 73.2788 9.93701 73.4722 10.0308C73.6685 10.1216 73.8647 10.249 74.061 10.4131L74.0347 9.63965V7.88623H74.751V14.5H74.1577L74.1006 13.9639H74.0742C73.8955 14.1396 73.689 14.292 73.4546 14.4209C73.2202 14.5469 72.9653 14.6099 72.6899 14.6099ZM72.8481 14.0122C73.062 14.0122 73.2642 13.9609 73.4546 13.8584C73.645 13.7529 73.8384 13.5933 74.0347 13.3794V10.9756C73.8354 10.7998 73.645 10.6738 73.4634 10.5977C73.2817 10.5215 73.0957 10.4834 72.9053 10.4834C72.6562 10.4834 72.4307 10.5581 72.2285 10.7075C72.0293 10.8569 71.8696 11.0649 71.7495 11.3315C71.6294 11.5981 71.5693 11.9072 71.5693 12.2588C71.5693 12.8066 71.6807 13.2358 71.9033 13.5464C72.126 13.8569 72.4409 14.0122 72.8481 14.0122ZM80.9253 14.6099C80.562 14.6099 80.2222 14.5176 79.9058 14.333C79.5923 14.1484 79.3389 13.8818 79.1455 13.5332C78.9551 13.1816 78.8599 12.7568 78.8599 12.2588C78.8599 11.7578 78.9551 11.3315 79.1455 10.98C79.3389 10.6255 79.5923 10.356 79.9058 10.1714C80.2222 9.98389 80.562 9.89014 80.9253 9.89014C81.2944 9.89014 81.6372 9.98389 81.9536 10.1714C82.27 10.356 82.5234 10.6255 82.7139 10.98C82.9072 11.3315 83.0039 11.7578 83.0039 12.2588C83.0039 12.7568 82.9072 13.1816 82.7139 13.5332C82.5234 13.8818 82.27 14.1484 81.9536 14.333C81.6372 14.5176 81.2944 14.6099 80.9253 14.6099ZM80.9253 14.021C81.3267 14.021 81.6519 13.8599 81.9009 13.5376C82.1499 13.2124 82.2744 12.7861 82.2744 12.2588C82.2744 11.7285 82.1499 11.3008 81.9009 10.9756C81.6519 10.6475 81.3267 10.4834 80.9253 10.4834C80.6646 10.4834 80.4331 10.5581 80.231 10.7075C80.0288 10.8569 79.8706 11.0649 79.7563 11.3315C79.645 11.5952 79.5894 11.9043 79.5894 12.2588C79.5894 12.7861 79.7139 13.2124 79.9629 13.5376C80.2119 13.8599 80.5327 14.021 80.9253 14.021ZM84.2124 14.5V10.0044H84.8057L84.8716 10.6504H84.8892C85.106 10.4365 85.3359 10.2563 85.5791 10.1099C85.8223 9.96338 86.0991 9.89014 86.4097 9.89014C86.8784 9.89014 87.2227 10.0396 87.4424 10.3384C87.6621 10.6343 87.772 11.0693 87.772 11.6436V14.5H87.0688V11.7358C87.0688 11.3081 87 10.9961 86.8623 10.7998C86.7246 10.6035 86.499 10.5054 86.1855 10.5054C85.9541 10.5054 85.7446 10.5669 85.5571 10.6899C85.3696 10.813 85.1587 10.9917 84.9243 11.2261V14.5H84.2124ZM93.5464 14.6099C93.0747 14.6099 92.7466 14.4736 92.562 14.2012C92.3774 13.9287 92.2852 13.5713 92.2852 13.1289V10.5889H91.6172V10.0396L92.3247 10.0044L92.4082 8.54541H93.0015V10.0044H94.2363V10.5889H93.0015V13.1465C93.0015 13.4248 93.0527 13.6416 93.1553 13.7969C93.2578 13.9521 93.4409 14.0298 93.7046 14.0298C93.7837 14.0298 93.8672 14.0225 93.9551 14.0078C94.043 13.9902 94.1323 13.9609 94.2231 13.9199L94.3813 14.4209C94.2612 14.4736 94.1294 14.5176 93.9858 14.5527C93.8423 14.5908 93.6958 14.6099 93.5464 14.6099ZM95.2603 14.5V7.88623H95.9722V9.70557L95.9458 10.6416C96.1626 10.4336 96.3911 10.2563 96.6313 10.1099C96.8716 9.96338 97.147 9.89014 97.4575 9.89014C97.9263 9.89014 98.2705 10.0396 98.4902 10.3384C98.71 10.6343 98.8198 11.0693 98.8198 11.6436V14.5H98.1167V11.7358C98.1167 11.3081 98.0479 10.9961 97.9102 10.7998C97.7725 10.6035 97.5469 10.5054 97.2334 10.5054C97.002 10.5054 96.7925 10.5669 96.605 10.6899C96.4175 10.813 96.2065 10.9917 95.9722 11.2261V14.5H95.2603ZM102.094 14.6099C101.698 14.6099 101.338 14.5161 101.013 14.3286C100.69 14.1411 100.433 13.8716 100.239 13.52C100.049 13.1685 99.9536 12.748 99.9536 12.2588C99.9536 11.7695 100.049 11.3477 100.239 10.9932C100.433 10.6387 100.683 10.3662 100.991 10.1758C101.298 9.98535 101.624 9.89014 101.966 9.89014C102.532 9.89014 102.97 10.0791 103.28 10.457C103.591 10.835 103.746 11.3491 103.746 11.9995C103.746 12.1636 103.737 12.3027 103.72 12.417H100.657C100.68 12.9062 100.83 13.3003 101.105 13.5991C101.38 13.8979 101.738 14.0474 102.177 14.0474C102.403 14.0474 102.609 14.0181 102.797 13.9595C102.984 13.8979 103.159 13.813 103.32 13.7046L103.57 14.1484C103.374 14.2832 103.157 14.3945 102.92 14.4824C102.683 14.5674 102.407 14.6099 102.094 14.6099ZM100.648 11.9028H103.118C103.118 11.4312 103.018 11.0723 102.819 10.8262C102.62 10.5801 102.338 10.457 101.975 10.457C101.65 10.457 101.358 10.583 101.101 10.835C100.846 11.0869 100.695 11.4429 100.648 11.9028Z" fill="#0D1E46"/>
<path d="M38.2061 30.5H36.1758L40.3066 18.5029H42.5391L46.6611 30.5H44.5518L43.4883 27.1777H39.2783L38.2061 30.5ZM41.4316 20.5771H41.3525L39.7266 25.6484H43.04L41.4316 20.5771ZM52.2644 30.6318C51.0603 30.6318 50.1462 30.0605 49.654 29.208H49.5837V33.585H47.6325V21.21H49.531V22.5723H49.6013C50.1111 21.6846 51.0603 21.0869 52.3083 21.0869C54.3913 21.0869 55.8767 22.6602 55.8767 25.4375V26.2637C55.8767 29.0234 54.4089 30.6318 52.2644 30.6318ZM51.8161 29.0234C53.0554 29.0234 53.8991 28.0303 53.8991 26.1582V25.5078C53.8991 23.7061 53.1081 22.6777 51.781 22.6777C50.4187 22.6777 49.5661 23.7852 49.5661 25.499V26.1582C49.5661 27.916 50.4275 29.0234 51.8161 29.0234ZM62.183 30.6318C60.9789 30.6318 60.0649 30.0605 59.5727 29.208H59.5024V33.585H57.5512V21.21H59.4496V22.5723H59.52C60.0297 21.6846 60.9789 21.0869 62.227 21.0869C64.31 21.0869 65.7954 22.6602 65.7954 25.4375V26.2637C65.7954 29.0234 64.3276 30.6318 62.183 30.6318ZM61.7348 29.0234C62.9741 29.0234 63.8178 28.0303 63.8178 26.1582V25.5078C63.8178 23.7061 63.0268 22.6777 61.6996 22.6777C60.3373 22.6777 59.4848 23.7852 59.4848 25.499V26.1582C59.4848 27.916 60.3461 29.0234 61.7348 29.0234ZM69.8387 27.1689H71.7899C71.8778 28.2061 72.7919 29.0938 74.4882 29.0938C76.0438 29.0938 76.9667 28.3643 76.9667 27.2305C76.9667 26.3164 76.3514 25.8242 75.0682 25.5166L73.0995 25.0244C71.5526 24.6641 70.1639 23.7412 70.1639 21.79C70.1639 19.4961 72.1679 18.2393 74.497 18.2393C76.8261 18.2393 78.7684 19.4961 78.8124 21.7373H76.8964C76.8085 20.7178 76.0262 19.874 74.4706 19.874C73.0995 19.874 72.1679 20.5244 72.1679 21.6406C72.1679 22.4229 72.7128 22.9854 73.829 23.2402L75.7889 23.7236C77.5907 24.1631 78.9618 25.0156 78.9618 27.0547C78.9618 29.4102 77.0546 30.7373 74.3387 30.7373C70.9989 30.7373 69.8827 28.7861 69.8387 27.1689ZM81.3395 21.21V18.9512H83.2555V21.21H85.066V22.7744H83.2555V27.7314C83.2555 28.7422 83.6334 29.0234 84.6793 29.0234C84.8463 29.0234 85.0045 29.0234 85.1188 29.0059V30.5C84.9605 30.5264 84.5914 30.5615 84.1959 30.5615C81.9371 30.5615 81.3131 29.7529 81.3131 27.8896V22.7744H80.0299V21.21H81.3395ZM90.3353 21.0518C93.0071 21.0518 94.4573 22.9326 94.4573 25.4639V26.2109C94.4573 28.8301 93.0159 30.6582 90.3353 30.6582C87.6546 30.6582 86.1956 28.8301 86.1956 26.2109V25.4639C86.1956 22.9414 87.6634 21.0518 90.3353 21.0518ZM90.3353 22.6162C88.8851 22.6162 88.1644 23.8027 88.1644 25.4902V26.2021C88.1644 27.8633 88.8763 29.085 90.3353 29.085C91.7943 29.085 92.4974 27.8721 92.4974 26.2021V25.4902C92.4974 23.7939 91.7855 22.6162 90.3353 22.6162ZM96.1055 30.5V21.21H98.0567V22.4316H98.127C98.3643 21.8516 99.0586 21.0781 100.351 21.0781C100.606 21.0781 100.825 21.0957 101.01 21.1309V22.8535C100.843 22.8096 100.5 22.7832 100.175 22.7832C98.6104 22.7832 98.083 23.75 98.083 24.998V30.5H96.1055ZM105.743 30.6582C103.256 30.6582 101.674 29.0146 101.674 26.2637V25.3232C101.674 22.7305 103.22 21.0518 105.664 21.0518C108.142 21.0518 109.636 22.792 109.636 25.4111V26.2988H103.598V26.5186C103.598 28.083 104.442 29.1201 105.769 29.1201C106.762 29.1201 107.439 28.6279 107.677 27.8281H109.531C109.25 29.3311 108.037 30.6582 105.743 30.6582ZM103.598 24.9365H107.729V24.9189C107.729 23.6006 106.912 22.5635 105.673 22.5635C104.416 22.5635 103.598 23.6006 103.598 24.9189V24.9365Z" fill="#0D1E46"/>
</svg>
