<svg width="24" height="24" viewBox="0 0 24 24" fill="none" xmlns="http://www.w3.org/2000/svg">
<path d="M12 3C16.971 3 21 7.02895 21 12C21 16.971 16.971 21 12 21C7.02895 21 3 16.971 3 12C3 7.02895 7.02895 3 12 3Z" stroke="#1D3E80" stroke-width="2" stroke-linecap="round" stroke-linejoin="round"/>
<path d="M17 9.92405C17.0006 10.1333 16.9598 10.3407 16.8799 10.5341C16.8 10.7274 16.6827 10.9031 16.5346 11.0507L11.4305 16.1641C11.3784 16.2155 11.3132 16.2515 11.242 16.2681L8.0688 16.9788C8.00561 16.9925 7.94114 16.9996 7.87648 17C7.74676 16.9997 7.61872 16.9705 7.50156 16.9148C7.38439 16.859 7.28101 16.7779 7.19883 16.6774C7.11665 16.5769 7.05772 16.4594 7.02625 16.3334C6.99478 16.2073 6.99156 16.0759 7.01683 15.9484L7.6284 12.89C7.64353 12.8155 7.68033 12.7472 7.73417 12.6936L12.9536 7.46655C13.2525 7.16779 13.6574 7 14.0797 7C14.5019 7 14.9069 7.16779 15.2057 7.46655L16.5346 8.79545C16.6826 8.94361 16.7998 9.11958 16.8797 9.31328C16.9596 9.50695 17.0004 9.71451 17 9.92405Z" fill="#1D3E80"/>
</svg>
