<svg width="28" height="28" viewBox="0 0 28 28" fill="none" xmlns="http://www.w3.org/2000/svg">
<path d="M14.186 13.5563C14.151 13.5563 14.1276 13.5563 14.0926 13.5563C14.0343 13.5447 13.9526 13.5447 13.8826 13.5563C10.4993 13.4513 7.94434 10.7913 7.94434 7.51301C7.94434 4.17634 10.6627 1.45801 13.9993 1.45801C17.336 1.45801 20.0543 4.17634 20.0543 7.51301C20.0426 10.7913 17.476 13.4513 14.221 13.5563C14.2093 13.5563 14.1976 13.5563 14.186 13.5563ZM13.9993 3.20801C11.631 3.20801 9.69434 5.14467 9.69434 7.51301C9.69434 9.84634 11.5143 11.7247 13.836 11.8063C13.8943 11.7947 14.0576 11.7947 14.2093 11.8063C16.496 11.7013 18.2926 9.82301 18.3043 7.51301C18.3043 5.14467 16.3676 3.20801 13.9993 3.20801Z" fill="#007CC5"/>
<path d="M14.1979 26.3087C11.9112 26.3087 9.61288 25.7253 7.87454 24.5587C6.25288 23.4853 5.36621 22.0153 5.36621 20.417C5.36621 18.8187 6.25288 17.337 7.87454 16.252C11.3745 13.9303 17.0445 13.9303 20.5212 16.252C22.1312 17.3253 23.0295 18.7953 23.0295 20.3937C23.0295 21.992 22.1429 23.4737 20.5212 24.5587C18.7712 25.7253 16.4845 26.3087 14.1979 26.3087ZM8.84288 17.722C7.72288 18.4687 7.11621 19.4253 7.11621 20.4287C7.11621 21.4203 7.73454 22.377 8.84288 23.112C11.7479 25.0603 16.6479 25.0603 19.5529 23.112C20.6729 22.3653 21.2795 21.4087 21.2795 20.4053C21.2795 19.4137 20.6612 18.457 19.5529 17.722C16.6479 15.7853 11.7479 15.7853 8.84288 17.722Z" fill="#007CC5"/>
</svg>
