<svg width="28" height="28" viewBox="0 0 28 28" fill="none" xmlns="http://www.w3.org/2000/svg">
<path d="M14.1862 13.5563C14.1512 13.5563 14.1279 13.5563 14.0929 13.5563C14.0345 13.5447 13.9529 13.5447 13.8829 13.5563C10.4996 13.4513 7.94458 10.7913 7.94458 7.51301C7.94458 4.17634 10.6629 1.45801 13.9995 1.45801C17.3362 1.45801 20.0545 4.17634 20.0545 7.51301C20.0429 10.7913 17.4762 13.4513 14.2212 13.5563C14.2095 13.5563 14.1979 13.5563 14.1862 13.5563ZM13.9995 3.20801C11.6312 3.20801 9.69458 5.14467 9.69458 7.51301C9.69458 9.84634 11.5146 11.7247 13.8362 11.8063C13.8945 11.7947 14.0579 11.7947 14.2095 11.8063C16.4962 11.7013 18.2929 9.82301 18.3045 7.51301C18.3045 5.14467 16.3679 3.20801 13.9995 3.20801Z" fill="#007CC5"/>
<path d="M14.1979 26.3087C11.9112 26.3087 9.61288 25.7253 7.87454 24.5587C6.25288 23.4853 5.36621 22.0153 5.36621 20.417C5.36621 18.8187 6.25288 17.337 7.87454 16.252C11.3745 13.9303 17.0445 13.9303 20.5212 16.252C22.1312 17.3253 23.0295 18.7953 23.0295 20.3937C23.0295 21.992 22.1429 23.4737 20.5212 24.5587C18.7712 25.7253 16.4845 26.3087 14.1979 26.3087ZM8.84288 17.722C7.72288 18.4687 7.11621 19.4253 7.11621 20.4287C7.11621 21.4203 7.73454 22.377 8.84288 23.112C11.7479 25.0603 16.6479 25.0603 19.5529 23.112C20.6729 22.3653 21.2795 21.4087 21.2795 20.4053C21.2795 19.4137 20.6612 18.457 19.5529 17.722C16.6479 15.7853 11.7479 15.7853 8.84288 17.722Z" fill="#007CC5"/>
</svg>
