<svg width="24" height="24" viewBox="0 0 24 24" fill="none" xmlns="http://www.w3.org/2000/svg">
<path fill-rule="evenodd" clip-rule="evenodd" d="M15.8897 20.9902C14.8597 20.9902 13.8567 20.7052 12.9107 20.1422L12.8977 20.1322C7.9017 16.0982 7.9017 16.0982 3.8687 11.1022L3.8507 11.0812C2.2017 8.23919 3.2197 5.26119 5.0157 3.85819C5.7397 3.29219 6.5417 2.99219 7.3367 2.99219C8.2507 2.99219 9.1197 3.38119 9.8507 4.11519C11.6647 5.92919 11.3957 7.17419 10.2627 8.83819C9.3157 10.2732 9.2027 11.2082 11.0047 12.9992C11.8507 13.8442 12.5947 14.4102 13.4697 14.4102C14.1447 14.4102 14.6547 14.0682 15.1477 13.7372C16.0727 13.1132 16.7657 12.8382 17.4077 12.8382C18.1957 12.8382 19.0047 13.2652 19.8807 14.1452C21.2837 15.5482 21.3817 17.4002 20.1427 18.9832C19.1717 20.2202 17.5427 20.9902 15.8897 20.9902" fill="#0D1E46"/>
</svg>
