<svg width="28" height="28" viewBox="0 0 28 28" fill="none" xmlns="http://www.w3.org/2000/svg">
<path d="M20.3585 26.5413C19.0402 26.5413 17.6518 26.2263 16.2168 25.6197C14.8168 25.0247 13.4052 24.208 12.0285 23.2163C10.6635 22.213 9.34516 21.093 8.09683 19.868C6.86016 18.6197 5.74016 17.3013 4.7485 15.948C3.74516 14.548 2.94016 13.148 2.3685 11.7947C1.76183 10.348 1.4585 8.94801 1.4585 7.62967C1.4585 6.71968 1.62183 5.85634 1.93683 5.05134C2.2635 4.22301 2.7885 3.45301 3.50016 2.78801C4.3985 1.90134 5.42516 1.45801 6.52183 1.45801C6.97683 1.45801 7.4435 1.56301 7.84016 1.74967C8.29516 1.95967 8.68016 2.27467 8.96016 2.69467L11.6668 6.50967C11.9118 6.84801 12.0985 7.17467 12.2268 7.50134C12.3785 7.85134 12.4602 8.20134 12.4602 8.53968C12.4602 8.98301 12.3318 9.41468 12.0868 9.82301C11.9118 10.138 11.6435 10.4763 11.3052 10.8147L10.5118 11.643C10.5235 11.678 10.5352 11.7013 10.5468 11.7247C10.6868 11.9697 10.9668 12.3897 11.5035 13.0197C12.0752 13.673 12.6118 14.268 13.1485 14.8163C13.8368 15.493 14.4085 16.0297 14.9452 16.473C15.6102 17.033 16.0418 17.313 16.2985 17.4413L16.2752 17.4997L17.1268 16.6597C17.4885 16.298 17.8385 16.0297 18.1768 15.8547C18.8185 15.458 19.6352 15.388 20.4518 15.7263C20.7552 15.8547 21.0818 16.0297 21.4318 16.2747L25.3052 19.028C25.7368 19.3197 26.0518 19.693 26.2385 20.1363C26.4135 20.5797 26.4952 20.988 26.4952 21.3963C26.4952 21.9563 26.3668 22.5163 26.1218 23.0413C25.8768 23.5663 25.5735 24.0213 25.1885 24.4413C24.5235 25.1763 23.8002 25.7013 22.9602 26.0397C22.1552 26.3663 21.2802 26.5413 20.3585 26.5413ZM6.52183 3.20801C5.88016 3.20801 5.28516 3.48801 4.7135 4.04801C4.17683 4.54967 3.8035 5.09801 3.57016 5.69301C3.32516 6.29967 3.2085 6.94134 3.2085 7.62967C3.2085 8.71467 3.46516 9.89301 3.9785 11.1063C4.5035 12.343 5.2385 13.6263 6.17183 14.9097C7.10516 16.193 8.16683 17.4413 9.3335 18.6197C10.5002 19.7747 11.7602 20.848 13.0552 21.793C14.3152 22.7147 15.6102 23.4613 16.8935 23.998C18.8885 24.8497 20.7552 25.048 22.2952 24.4063C22.8902 24.1613 23.4152 23.788 23.8935 23.2513C24.1618 22.9597 24.3718 22.6447 24.5468 22.2713C24.6868 21.9797 24.7568 21.6763 24.7568 21.373C24.7568 21.1863 24.7218 20.9997 24.6285 20.7897C24.5935 20.7197 24.5235 20.5913 24.3018 20.4397L20.4285 17.6863C20.1952 17.523 19.9852 17.4063 19.7868 17.3247C19.5302 17.2197 19.4252 17.1147 19.0285 17.3597C18.7952 17.4763 18.5852 17.6513 18.3518 17.8847L17.4652 18.7597C17.0102 19.203 16.3102 19.308 15.7735 19.1097L15.4585 18.9697C14.9802 18.713 14.4202 18.3163 13.8018 17.7913C13.2418 17.313 12.6352 16.753 11.9002 16.0297C11.3285 15.4463 10.7568 14.828 10.1618 14.1397C9.6135 13.498 9.21683 12.9497 8.97183 12.4947L8.83183 12.1447C8.76183 11.8763 8.7385 11.7247 8.7385 11.5613C8.7385 11.1413 8.89016 10.768 9.18183 10.4763L10.0568 9.56634C10.2902 9.33301 10.4652 9.11134 10.5818 8.91301C10.6752 8.76134 10.7102 8.63301 10.7102 8.51634C10.7102 8.42301 10.6752 8.28301 10.6168 8.14301C10.5352 7.95634 10.4068 7.74634 10.2435 7.52467L7.53683 3.69801C7.42016 3.53467 7.28016 3.41801 7.10516 3.33634C6.9185 3.25467 6.72016 3.20801 6.52183 3.20801ZM16.2752 17.5113L16.0885 18.3047L16.4035 17.488C16.3452 17.4763 16.2985 17.488 16.2752 17.5113Z" fill="#007CC5"/>
<path d="M21.5833 11.3753C21.105 11.3753 20.7083 10.9787 20.7083 10.5003C20.7083 10.0803 20.2883 9.20533 19.5883 8.45866C18.9 7.72366 18.1417 7.29199 17.5 7.29199C17.0217 7.29199 16.625 6.89533 16.625 6.41699C16.625 5.93866 17.0217 5.54199 17.5 5.54199C18.6317 5.54199 19.8217 6.14866 20.86 7.25699C21.8283 8.29533 22.4583 9.56699 22.4583 10.5003C22.4583 10.9787 22.0617 11.3753 21.5833 11.3753Z" fill="#007CC5"/>
<path d="M25.6667 11.3747C25.1883 11.3747 24.7917 10.978 24.7917 10.4997C24.7917 6.47467 21.525 3.20801 17.5 3.20801C17.0217 3.20801 16.625 2.81134 16.625 2.33301C16.625 1.85467 17.0217 1.45801 17.5 1.45801C22.4817 1.45801 26.5417 5.51801 26.5417 10.4997C26.5417 10.978 26.145 11.3747 25.6667 11.3747Z" fill="#007CC5"/>
</svg>
