<svg width="25" height="25" viewBox="0 0 25 25" fill="none" xmlns="http://www.w3.org/2000/svg">
<path d="M12.4685 0H12.4623C5.58916 0 0 5.59072 0 12.4654C0 15.1922 0.878809 17.7195 2.3731 19.7716L0.819598 24.4025L5.61098 22.8708C7.58206 24.1766 9.93335 24.9307 12.4685 24.9307C19.3416 24.9307 24.9307 19.3385 24.9307 12.4654C24.9307 5.59228 19.3416 0 12.4685 0Z" fill="#007CC5"/>
<path d="M19.7219 17.6025C19.4212 18.4517 18.2276 19.156 17.2756 19.3617C16.6243 19.5003 15.7735 19.611 12.9096 18.4236C9.24634 16.906 6.88727 13.1835 6.70341 12.942C6.52733 12.7005 5.22314 10.9709 5.22314 9.18213C5.22314 7.39335 6.13156 6.52233 6.49773 6.14837C6.79846 5.84141 7.29551 5.70117 7.77231 5.70117C7.92657 5.70117 8.06525 5.70896 8.1899 5.7152C8.55607 5.73078 8.73994 5.75259 8.98145 6.33067C9.28218 7.05522 10.0145 8.844 10.1018 9.02787C10.1906 9.21173 10.2794 9.46104 10.1548 9.70256C10.0379 9.95186 9.93506 10.0625 9.75119 10.2744C9.56733 10.4863 9.39281 10.6484 9.20895 10.8759C9.04067 11.0737 8.85057 11.2857 9.06248 11.6518C9.27439 12.0102 10.0067 13.2053 11.085 14.1652C12.4764 15.4039 13.6046 15.7997 14.0081 15.968C14.3088 16.0926 14.6672 16.063 14.8869 15.8293C15.1658 15.5286 15.5102 15.0299 15.8608 14.5391C16.1101 14.187 16.4248 14.1433 16.7552 14.268C17.0917 14.3849 18.8727 15.2652 19.2389 15.4475C19.6051 15.6314 19.8466 15.7187 19.9354 15.8729C20.0227 16.0272 20.0227 16.7517 19.7219 17.6025Z" fill="#FAFAFA"/>
</svg>
