<svg width="24" height="24" viewBox="0 0 24 24" fill="none" xmlns="http://www.w3.org/2000/svg">
<path opacity="0.25" d="M12 1C9.82441 1 7.69767 1.64514 5.88873 2.85383C4.07979 4.06253 2.66989 5.78049 1.83733 7.79048C1.00477 9.80047 0.786929 12.0122 1.21137 14.146C1.6358 16.2798 2.68345 18.2398 4.22183 19.7782C5.76021 21.3166 7.72022 22.3642 9.85401 22.7886C11.9878 23.2131 14.1995 22.9952 16.2095 22.1627C18.2195 21.3301 19.9375 19.9202 21.1462 18.1113C22.3549 16.3023 23 14.1756 23 12C23 9.08262 21.8411 6.28473 19.7782 4.22183C17.7153 2.15893 14.9174 1 12 1ZM12 20C10.4178 20 8.87104 19.5308 7.55544 18.6518C6.23985 17.7727 5.21447 16.5233 4.60897 15.0615C4.00347 13.5997 3.84504 11.9911 4.15372 10.4393C4.4624 8.88743 5.22433 7.46197 6.34315 6.34315C7.46197 5.22433 8.88743 4.4624 10.4393 4.15372C11.9911 3.84504 13.5997 4.00346 15.0615 4.60896C16.5233 5.21447 17.7727 6.23984 18.6518 7.55544C19.5308 8.87103 20 10.4177 20 12C20 14.1217 19.1572 16.1566 17.6569 17.6569C16.1566 19.1571 14.1217 20 12 20Z" fill="#009CDE"/>
<path d="M12 4.00011C13.8957 4.00098 15.7296 4.67503 17.1746 5.90212C18.6196 7.1292 19.5819 8.82957 19.89 10.7001C19.9444 11.0581 20.124 11.3851 20.3968 11.6232C20.6696 11.8612 21.018 11.9948 21.38 12.0001C21.5982 12.0003 21.8138 11.9528 22.0118 11.861C22.2098 11.7692 22.3854 11.6354 22.5263 11.4687C22.6672 11.3021 22.7701 11.1067 22.8277 10.8963C22.8854 10.6858 22.8964 10.4653 22.86 10.2501C22.4443 7.66923 21.123 5.32078 19.1329 3.62564C17.1429 1.93051 14.6141 0.999512 12 0.999512C9.38585 0.999512 6.85715 1.93051 4.8671 3.62564C2.87705 5.32078 1.55574 7.66923 1.14 10.2501C1.10363 10.4653 1.11464 10.6858 1.17228 10.8963C1.22991 11.1067 1.33277 11.3021 1.47369 11.4687C1.61461 11.6354 1.79018 11.7692 1.98817 11.861C2.18615 11.9528 2.40178 12.0003 2.62 12.0001C2.98202 11.9948 3.33041 11.8612 3.60323 11.6232C3.87605 11.3851 4.05561 11.0581 4.11 10.7001C4.41806 8.82957 5.38037 7.1292 6.8254 5.90212C8.27042 4.67503 10.1043 4.00098 12 4.00011Z" fill="#007CC5"/>
</svg>
