<svg width="25" height="25" viewBox="0 0 25 25" fill="none" xmlns="http://www.w3.org/2000/svg">
<path d="M12.4654 24.9307C19.3498 24.9307 24.9307 19.3498 24.9307 12.4654C24.9307 5.58094 19.3498 0 12.4654 0C5.58094 0 0 5.58094 0 12.4654C0 19.3498 5.58094 24.9307 12.4654 24.9307Z" fill="#007CC5"/>
<path d="M5.70403 12.1951L17.7227 7.56111C18.2806 7.35959 18.7677 7.69719 18.587 8.54068L18.588 8.53964L16.5416 18.1806C16.39 18.8641 15.9838 19.0303 15.4156 18.7083L12.2993 16.4115L10.7961 17.8596C10.6299 18.0258 10.4897 18.166 10.1677 18.166L10.3889 14.9946L16.1646 9.77683C16.4159 9.55557 16.1085 9.43092 15.7771 9.65114L8.63963 14.1449L5.56276 13.1851C4.89482 12.9732 4.88028 12.5171 5.70403 12.1951Z" fill="white"/>
</svg>
