<svg width="24" height="24" viewBox="0 0 24 24" fill="none" xmlns="http://www.w3.org/2000/svg">
<path d="M3 6.52381C3 6.12932 3.32671 5.80952 3.72973 5.80952H8.51787C8.52437 4.9683 8.61554 3.81504 9.45037 3.01668C10.1074 2.38839 11.0081 2 12 2C12.9919 2 13.8926 2.38839 14.5496 3.01668C15.3844 3.81504 15.4756 4.9683 15.4821 5.80952H20.2703C20.6733 5.80952 21 6.12932 21 6.52381C21 6.9183 20.6733 7.2381 20.2703 7.2381H3.72973C3.32671 7.2381 3 6.9183 3 6.52381Z" fill="#F24848"/>
<path fill-rule="evenodd" clip-rule="evenodd" d="M11.5956 22.0001H12.4044C15.1871 22.0001 16.5785 22.0001 17.4831 21.1142C18.3878 20.2282 18.4803 18.775 18.6654 15.8686L18.9321 11.6807C19.0326 10.1037 19.0828 9.31524 18.6289 8.81558C18.1751 8.31592 17.4087 8.31592 15.876 8.31592H8.12404C6.59127 8.31592 5.82488 8.31592 5.37105 8.81558C4.91722 9.31524 4.96744 10.1037 5.06788 11.6807L5.33459 15.8686C5.5197 18.775 5.61225 20.2282 6.51689 21.1142C7.42153 22.0001 8.81289 22.0001 11.5956 22.0001ZM10.2463 12.1886C10.2051 11.7547 9.83753 11.4382 9.42537 11.4816C9.01321 11.525 8.71251 11.9118 8.75372 12.3457L9.25372 17.6088C9.29494 18.0427 9.66247 18.3592 10.0746 18.3158C10.4868 18.2725 10.7875 17.8856 10.7463 17.4517L10.2463 12.1886ZM14.5746 11.4816C14.9868 11.525 15.2875 11.9118 15.2463 12.3457L14.7463 17.6088C14.7051 18.0427 14.3375 18.3592 13.9254 18.3158C13.5132 18.2725 13.2125 17.8856 13.2537 17.4517L13.7537 12.1886C13.7949 11.7547 14.1625 11.4382 14.5746 11.4816Z" fill="#F24848"/>
</svg>
